<svg width="358" height="329" viewBox="0 0 358 329" fill="none" xmlns="http://www.w3.org/2000/svg">
<mask id="mask0_54_7092" style="mask-type:luminance" maskUnits="userSpaceOnUse" x="0" y="0" width="363" height="329">
<path d="M363 0H0V328.953H363V0Z" fill="white"/>
</mask>
<g mask="url(#mask0_54_7092)">
<path d="M353.161 -49C360.332 -35.4284 363.793 -20.2037 363.194 -4.86541C362.758 5.90477 360.026 17.1075 352.67 24.9841C345.314 32.8607 332.482 36.2538 323.372 30.494C320.549 28.7061 318.151 26.0288 317.36 22.7819C316.568 19.535 317.664 15.7338 320.46 13.9063C323.256 12.0787 327.192 12.5965 329.875 14.6007C332.558 16.6049 334.139 19.8274 334.809 23.1078C336.536 31.3865 333.021 40.1799 327.097 46.2168C321.173 52.2537 313.132 55.8204 304.935 57.9038C290.069 61.6452 274.429 60.9152 259.975 55.8052C249.97 52.2446 240.814 46.6676 231.101 42.376C221.387 38.0843 210.632 35.0354 200.182 36.997C189.732 38.9585 179.903 47.0483 178.748 57.5992C177.53 68.6679 185.65 78.5243 194.218 85.6364C213.34 101.508 236.69 110.823 259.631 119.674C271.51 124.243 283.319 128.705 295.1 133.441C305.889 137.782 316.519 143.678 323.412 153.34C331.794 165.073 332.641 181.298 326.585 194.334C316.973 215.089 292.319 221.613 271.696 225.573C247.411 230.233 221.631 229.151 198.662 219.481C180.448 211.799 164.5 198.687 147.492 188.483C134.386 180.625 121.033 173.198 107.432 166.203C101.554 163.178 95.7362 159.197 89.1084 158.893C81.6704 158.545 74.3055 159.014 67.4827 162.243C54.8942 168.17 46.7922 182.455 48.1476 196.317C49.2807 207.891 56.8253 218.171 67.032 223.486C78.6915 229.563 90.3359 236.407 101.81 243.032C128.448 258.461 150.935 280.136 167.332 306.191" stroke="#C7FFE1" stroke-width="3" stroke-miterlimit="10"/>
</g>
<mask id="mask1_54_7092" style="mask-type:luminance" maskUnits="userSpaceOnUse" x="80" y="87" width="211" height="242">
<path d="M290.579 87.3798H80.3896V328.953H290.579V87.3798Z" fill="white"/>
</mask>
<g mask="url(#mask1_54_7092)">
<path d="M265.536 96.0026H100.864C96.958 96.0075 93.2135 97.5612 90.4516 100.323C87.6897 103.085 86.1359 106.83 86.1311 110.735V395.758C86.1359 399.664 87.6898 403.408 90.4518 406.17C93.2137 408.931 96.9583 410.484 100.864 410.488H265.536C269.441 410.484 273.185 408.931 275.947 406.17C278.708 403.408 280.261 399.664 280.265 395.758V110.735C280.261 106.83 278.708 103.085 275.947 100.323C273.186 97.5613 269.441 96.0075 265.536 96.0026ZM271.594 394.994C271.594 396.719 270.908 398.374 269.688 399.594C268.468 400.814 266.813 401.5 265.088 401.5H101.309C99.5831 401.5 97.9283 400.814 96.7082 399.594C95.4881 398.374 94.8027 396.719 94.8027 394.994V111.5C94.8023 110.645 94.9703 109.799 95.297 109.009C95.6238 108.22 96.103 107.502 96.7072 106.898C97.3113 106.293 98.0287 105.814 98.8182 105.487C99.6078 105.159 100.454 104.991 101.309 104.991H265.085C266.811 104.992 268.465 105.678 269.685 106.899C270.905 108.119 271.591 109.774 271.591 111.5L271.594 394.994Z" fill="#353535"/>
<path d="M265.088 104.991C266.814 104.992 268.469 105.678 269.689 106.898C270.909 108.119 271.594 109.774 271.594 111.5V394.994C271.594 396.719 270.908 398.374 269.688 399.594C268.468 400.814 266.813 401.5 265.088 401.5H101.309C99.5832 401.5 97.9284 400.814 96.7083 399.594C95.4882 398.374 94.8027 396.719 94.8027 394.994V111.5C94.8023 110.645 94.9703 109.799 95.2971 109.009C95.6239 108.22 96.103 107.502 96.7072 106.898C97.3114 106.293 98.0287 105.814 98.8183 105.486C99.6078 105.159 100.454 104.991 101.309 104.991H265.085" fill="#4FBC86"/>
<path d="M265.536 93.5476H100.864C96.3067 93.5524 91.9374 95.3648 88.7146 98.587C85.4918 101.809 83.6787 106.178 83.6731 110.735V395.758C83.6787 400.316 85.4918 404.685 88.7146 407.907C91.9374 411.129 96.3067 412.941 100.864 412.946H265.536C270.092 412.941 274.461 411.128 277.683 407.906C280.905 404.684 282.718 400.315 282.723 395.758V110.735C282.719 106.178 280.906 101.809 277.684 98.5871C274.462 95.3649 270.093 93.5524 265.536 93.5476ZM280.265 395.758C280.261 399.664 278.708 403.408 275.947 406.17C273.185 408.931 269.441 410.484 265.536 410.488H100.864C96.9583 410.484 93.2138 408.931 90.4518 406.17C87.6898 403.408 86.136 399.664 86.1311 395.758V110.735C86.136 106.83 87.6897 103.085 90.4516 100.323C93.2135 97.5612 96.9581 96.0074 100.864 96.0026H265.536C269.441 96.0074 273.186 97.5613 275.947 100.323C278.708 103.085 280.261 106.83 280.265 110.735V395.758Z" fill="#724C2F"/>
<path d="M94.7115 124.783L90.2767 116.416C89.1018 114.198 88.669 111.662 89.0418 109.181C89.4146 106.699 90.5733 104.402 92.3479 102.627C94.1225 100.853 96.4194 99.6941 98.9012 99.3213C101.383 98.9485 103.919 99.3813 106.136 100.556L114.503 104.991L94.7115 124.783Z" fill="#4FBC86"/>
<path d="M271.688 124.783L276.12 116.416C277.295 114.198 277.728 111.662 277.355 109.181C276.982 106.699 275.823 104.402 274.049 102.627C272.274 100.853 269.977 99.6941 267.496 99.3213C265.014 98.9485 262.478 99.3813 260.26 100.556L251.896 104.991L271.688 124.783Z" fill="#4FBC86"/>
<path d="M106.106 267.241L97.0445 264.46C94.6455 263.723 92.5461 262.236 91.0549 260.217C89.5636 258.199 88.7592 255.755 88.7598 253.245C88.7594 250.736 89.564 248.293 91.0552 246.275C92.5465 244.257 94.6457 242.77 97.0445 242.034L106.097 239.253L106.106 267.241Z" fill="#4FBC86"/>
<path d="M260.303 267.241L269.352 264.46C271.751 263.723 273.851 262.236 275.343 260.218C276.835 258.199 277.64 255.755 277.64 253.245C277.64 250.736 276.834 248.293 275.343 246.274C273.851 244.256 271.751 242.77 269.352 242.034L260.303 239.253V267.241Z" fill="#4FBC86"/>
<path d="M101.153 111.823V394.671H265.246V111.823H101.153Z" fill="#63D398"/>
<path d="M101.153 118.639C104.827 118.639 107.806 115.661 107.806 111.987C107.806 108.313 104.827 105.335 101.153 105.335C97.4795 105.335 94.5012 108.313 94.5012 111.987C94.5012 115.661 97.4795 118.639 101.153 118.639Z" fill="#353535"/>
<path d="M265.082 118.639C268.756 118.639 271.734 115.661 271.734 111.987C271.734 108.313 268.756 105.335 265.082 105.335C261.408 105.335 258.43 108.313 258.43 111.987C258.43 115.661 261.408 118.639 265.082 118.639Z" fill="#353535"/>
<path d="M101.153 259.897C104.827 259.897 107.806 256.919 107.806 253.245C107.806 249.571 104.827 246.593 101.153 246.593C97.4795 246.593 94.5012 249.571 94.5012 253.245C94.5012 256.919 97.4795 259.897 101.153 259.897Z" fill="#353535"/>
<path d="M265.082 259.897C268.756 259.897 271.734 256.919 271.734 253.245C271.734 249.571 268.756 246.593 265.082 246.593C261.408 246.593 258.43 249.571 258.43 253.245C258.43 256.919 261.408 259.897 265.082 259.897Z" fill="#353535"/>
<path d="M280.265 239.825V266.662H282.723V239.825H280.265ZM83.6731 239.825V266.662H86.1311V239.825H83.6731Z" fill="#F9CE00"/>
<path d="M86.1311 239.828H83.6731V266.666H86.1311V239.828Z" fill="#F9CE00"/>
<path d="M282.724 239.828H280.266V266.666H282.724V239.828Z" fill="#F9CE00"/>
<path d="M105.174 93.5476V96.0026H100.864C96.9581 96.0074 93.2135 97.5612 90.4516 100.323C87.6897 103.085 86.136 106.83 86.1311 110.735V112.868H83.6731V110.735C83.6787 106.178 85.4918 101.809 88.7146 98.587C91.9374 95.3648 96.3067 93.5524 100.864 93.5476H105.174Z" fill="#F9CE00"/>
<path d="M282.723 110.735V112.868H280.265V110.735C280.261 106.83 278.708 103.085 275.947 100.323C273.185 97.5613 269.441 96.0074 265.536 96.0026H261.217V93.5476H265.526C270.085 93.55 274.456 95.3614 277.681 98.5839C280.905 101.806 282.719 106.177 282.723 110.735Z" fill="#F9CE00"/>
</g>
<g style="mix-blend-mode:multiply" opacity="0.56">
<path d="M194.539 179.341C193.784 178.032 192.698 176.946 191.39 176.191C190.082 175.436 188.598 175.038 187.088 175.038C185.577 175.038 184.093 175.436 182.785 176.191C181.477 176.946 180.391 178.032 179.636 179.341L147.606 234.836C146.851 236.145 146.454 237.628 146.454 239.139C146.454 240.649 146.852 242.133 147.607 243.441C148.363 244.749 149.449 245.835 150.757 246.591C152.065 247.346 153.548 247.744 155.059 247.745H219.144C220.653 247.742 222.135 247.342 223.442 246.586C224.748 245.83 225.832 244.743 226.586 243.436C227.34 242.128 227.736 240.645 227.736 239.136C227.736 237.626 227.339 236.144 226.585 234.836L194.539 179.341ZM225.912 243.054C225.231 244.247 224.246 245.238 223.056 245.925C221.866 246.612 220.515 246.97 219.141 246.962H155.056C153.684 246.962 152.336 246.6 151.147 245.914C149.959 245.228 148.972 244.241 148.286 243.053C147.6 241.864 147.238 240.516 147.238 239.144C147.238 237.772 147.599 236.424 148.285 235.235L180.327 179.733C181.014 178.545 182.001 177.558 183.189 176.872C184.378 176.186 185.726 175.825 187.098 175.825C188.471 175.825 189.819 176.186 191.007 176.872C192.196 177.558 193.183 178.545 193.869 179.733L225.912 235.235C226.606 236.423 226.97 237.774 226.969 239.149C226.967 240.524 226.599 241.874 225.903 243.06L225.912 243.054Z" fill="#F2E3E5"/>
</g>
<g style="mix-blend-mode:multiply" opacity="0.56">
<path d="M184.14 206.064C187.794 205.47 190.276 202.027 189.683 198.372C189.09 194.717 185.646 192.236 181.991 192.829C178.337 193.422 175.855 196.866 176.448 200.52C177.041 204.175 180.485 206.657 184.14 206.064Z" fill="#F2E3E5"/>
</g>
<g style="mix-blend-mode:multiply" opacity="0.56">
<path d="M204.79 199.812C204.827 196.109 201.856 193.078 198.153 193.041C194.451 193.004 191.419 195.975 191.382 199.677C191.345 203.38 194.317 206.411 198.019 206.448C201.722 206.485 204.753 203.514 204.79 199.812Z" fill="#F2E3E5"/>
</g>
<g style="mix-blend-mode:multiply" opacity="0.56">
<path d="M194.564 191.361C197.393 188.972 197.751 184.743 195.362 181.914C192.974 179.084 188.744 178.727 185.915 181.115C183.086 183.504 182.729 187.733 185.117 190.562C187.505 193.392 191.735 193.749 194.564 191.361Z" fill="#F2E3E5"/>
</g>
<g style="mix-blend-mode:multiply" opacity="0.56">
<path d="M167.544 242.962C168.96 239.541 167.336 235.62 163.915 234.203C160.495 232.786 156.573 234.41 155.156 237.831C153.739 241.252 155.364 245.173 158.784 246.59C162.205 248.007 166.127 246.383 167.544 242.962Z" fill="#F2E3E5"/>
</g>
<g style="mix-blend-mode:multiply" opacity="0.56">
<path d="M182.512 240.619C182.626 236.918 179.718 233.826 176.017 233.712C172.317 233.598 169.224 236.506 169.111 240.207C168.997 243.908 171.905 247 175.606 247.114C179.306 247.227 182.399 244.319 182.512 240.619Z" fill="#F2E3E5"/>
</g>
<g style="mix-blend-mode:multiply" opacity="0.56">
<path d="M211.269 241.578C211.924 237.934 209.501 234.449 205.857 233.794C202.213 233.139 198.728 235.562 198.073 239.206C197.418 242.85 199.841 246.335 203.485 246.99C207.129 247.645 210.614 245.222 211.269 241.578Z" fill="#F2E3E5"/>
</g>
<g style="mix-blend-mode:multiply" opacity="0.56">
<path d="M221.195 246.752C224.716 245.608 226.643 241.826 225.499 238.304C224.355 234.783 220.573 232.856 217.052 234C213.53 235.144 211.603 238.926 212.747 242.448C213.892 245.969 217.674 247.896 221.195 246.752Z" fill="#F2E3E5"/>
</g>
<g style="mix-blend-mode:multiply" opacity="0.56">
<path d="M193.702 234.66C192.6 233.994 191.33 233.66 190.043 233.697C188.757 233.735 187.508 234.142 186.447 234.87L186.06 234.635L185.926 234.861L186.212 235.034C184.817 236.083 183.884 237.633 183.611 239.356L183.306 239.18L183.172 239.402L183.565 239.643C183.419 240.918 183.641 242.209 184.207 243.362C184.773 244.514 185.658 245.48 186.758 246.144C187.857 246.808 189.123 247.142 190.407 247.107C191.69 247.071 192.937 246.668 193.997 245.944L194.262 246.103L194.399 245.881L194.229 245.777C195.629 244.735 196.568 243.188 196.845 241.464L197.007 241.562L197.144 241.336L196.885 241.181C197.036 239.903 196.817 238.608 196.252 237.452C195.688 236.296 194.803 235.326 193.702 234.66Z" fill="#F2E3E5"/>
</g>
<g style="mix-blend-mode:multiply" opacity="0.56">
<path d="M168.564 233.691C172.267 233.691 175.268 230.69 175.268 226.987C175.268 223.285 172.267 220.283 168.564 220.283C164.862 220.283 161.86 223.285 161.86 226.987C161.86 230.69 164.862 233.691 168.564 233.691Z" fill="#F2E3E5"/>
</g>
<g style="mix-blend-mode:multiply" opacity="0.56">
<path d="M187.752 231.729C190.37 229.111 190.37 224.866 187.752 222.248C185.133 219.63 180.889 219.63 178.271 222.248C175.653 224.866 175.653 229.111 178.271 231.729C180.889 234.347 185.133 234.347 187.752 231.729Z" fill="#F2E3E5"/>
</g>
<g style="mix-blend-mode:multiply" opacity="0.56">
<path d="M217.518 230.635C219.539 227.532 218.661 223.379 215.559 221.359C212.456 219.338 208.303 220.216 206.283 223.318C204.262 226.421 205.14 230.574 208.242 232.595C211.345 234.615 215.498 233.737 217.518 230.635Z" fill="#F2E3E5"/>
</g>
<g style="mix-blend-mode:multiply" opacity="0.56">
<path d="M203.991 228.501L204.295 228.44L204.241 228.181L204.049 228.221C204.37 226.505 204.01 224.731 203.044 223.277L203.226 223.241L203.175 222.982L202.87 223.043C202.113 222 201.072 221.198 199.872 220.732C198.671 220.266 197.361 220.156 196.099 220.415C194.838 220.674 193.677 221.291 192.757 222.192C191.837 223.094 191.197 224.241 190.912 225.498L190.47 225.589L190.525 225.845L190.854 225.778C190.538 227.495 190.906 229.268 191.877 230.718L191.539 230.788L191.591 231.044L192.042 230.953C192.799 231.989 193.837 232.787 195.034 233.251C196.231 233.714 197.536 233.824 198.794 233.567C200.052 233.311 201.209 232.698 202.129 231.803C203.049 230.907 203.692 229.766 203.982 228.516L203.991 228.501Z" fill="#F2E3E5"/>
</g>
<g style="mix-blend-mode:multiply" opacity="0.56">
<path d="M182.463 213.095C182.576 209.394 179.669 206.302 175.968 206.188C172.267 206.074 169.175 208.982 169.061 212.683C168.947 216.384 171.855 219.476 175.556 219.59C179.257 219.703 182.349 216.795 182.463 213.095Z" fill="#F2E3E5"/>
</g>
<g style="mix-blend-mode:multiply" opacity="0.56">
<path d="M209.078 218.014C211.9 215.618 212.246 211.387 209.85 208.565C207.453 205.742 203.223 205.397 200.4 207.793C197.578 210.189 197.232 214.42 199.628 217.242C202.024 220.065 206.255 220.41 209.078 218.014Z" fill="#F2E3E5"/>
</g>
<g style="mix-blend-mode:multiply" opacity="0.56">
<path d="M184.378 216.936L184.829 216.841C185.586 217.877 186.625 218.674 187.821 219.137C189.018 219.6 190.322 219.709 191.579 219.453C192.836 219.196 193.993 218.584 194.913 217.689C195.832 216.794 196.475 215.654 196.766 214.405L197.071 214.341L197.019 214.085L196.827 214.124C197.146 212.409 196.785 210.636 195.822 209.181L196.005 209.141L195.953 208.886L195.648 208.946C194.892 207.907 193.853 207.107 192.655 206.641C191.456 206.176 190.15 206.065 188.89 206.322C187.631 206.579 186.471 207.193 185.551 208.09C184.631 208.987 183.988 210.131 183.699 211.383L183.258 211.472L183.312 211.73L183.641 211.663C183.485 212.509 183.494 213.377 183.669 214.219C183.843 215.071 184.181 215.881 184.665 216.604L184.327 216.671L184.378 216.936Z" fill="#F2E3E5"/>
</g>
<path d="M179.322 203.753C183.025 203.753 186.026 200.752 186.026 197.049C186.026 193.347 183.025 190.345 179.322 190.345C175.62 190.345 172.618 193.347 172.618 197.049C172.618 200.752 175.62 203.753 179.322 203.753Z" fill="#EB82B9"/>
<path d="M178.066 197.371C178.648 195.961 177.978 194.346 176.568 193.764C175.158 193.182 173.543 193.853 172.96 195.262C172.378 196.672 173.049 198.287 174.459 198.87C175.869 199.452 177.484 198.781 178.066 197.371Z" stroke="white" stroke-width="0.746542" stroke-miterlimit="10"/>
<path d="M200.395 197.266C200.508 193.565 197.6 190.473 193.9 190.359C190.199 190.246 187.107 193.153 186.993 196.854C186.879 200.555 189.787 203.647 193.488 203.761C197.189 203.875 200.281 200.967 200.395 197.266Z" fill="#EF9A60"/>
<path d="M194.32 199.032C194.696 199.432 195.183 199.711 195.717 199.834C196.252 199.957 196.811 199.919 197.324 199.724C197.838 199.53 198.281 199.187 198.6 198.741C198.918 198.294 199.097 197.762 199.114 197.214C199.131 196.665 198.984 196.124 198.693 195.659C198.402 195.194 197.98 194.825 197.48 194.6C196.979 194.375 196.423 194.303 195.882 194.393C195.341 194.484 194.839 194.733 194.439 195.109C193.904 195.614 193.59 196.31 193.568 197.046C193.546 197.782 193.816 198.496 194.32 199.032Z" stroke="white" stroke-width="0.75" stroke-miterlimit="10"/>
<path d="M193.218 184.02C193.331 180.32 190.423 177.228 186.723 177.114C183.022 177 179.93 179.908 179.816 183.609C179.702 187.309 182.61 190.402 186.311 190.515C190.012 190.629 193.104 187.721 193.218 184.02Z" fill="#353535"/>
<path d="M184.476 188.56C184.852 188.96 185.338 189.24 185.873 189.363C186.408 189.487 186.967 189.449 187.481 189.255C187.994 189.06 188.438 188.718 188.757 188.271C189.076 187.824 189.255 187.293 189.271 186.744C189.288 186.195 189.141 185.654 188.85 185.188C188.559 184.723 188.137 184.354 187.636 184.129C187.135 183.904 186.579 183.832 186.038 183.923C185.496 184.014 184.994 184.264 184.595 184.64C184.06 185.145 183.746 185.841 183.724 186.576C183.702 187.311 183.972 188.025 184.476 188.56Z" stroke="white" stroke-width="0.75" stroke-miterlimit="10"/>
<path d="M157.611 244.684C161.314 244.684 164.315 241.682 164.315 237.98C164.315 234.277 161.314 231.276 157.611 231.276C153.909 231.276 150.907 234.277 150.907 237.98C150.907 241.682 153.909 244.684 157.611 244.684Z" fill="#91EA78"/>
<path d="M155.723 238.866C157.255 238.866 158.498 237.624 158.498 236.091C158.498 234.559 157.255 233.316 155.723 233.316C154.191 233.316 152.948 234.559 152.948 236.091C152.948 237.624 154.191 238.866 155.723 238.866Z" stroke="white" stroke-width="0.75" stroke-miterlimit="10"/>
<path d="M178.774 238.197C178.888 234.497 175.98 231.404 172.279 231.291C168.579 231.177 165.486 234.085 165.373 237.786C165.259 241.486 168.167 244.579 171.868 244.692C175.568 244.806 178.661 241.898 178.774 238.197Z" fill="#F9CE00"/>
<path d="M172.704 239.962C173.08 240.362 173.566 240.641 174.101 240.764C174.635 240.887 175.195 240.849 175.708 240.655C176.221 240.46 176.665 240.118 176.983 239.671C177.302 239.224 177.481 238.693 177.497 238.144C177.514 237.596 177.368 237.055 177.077 236.589C176.786 236.124 176.363 235.755 175.863 235.53C175.363 235.305 174.807 235.233 174.265 235.324C173.724 235.414 173.222 235.663 172.822 236.039C172.557 236.289 172.343 236.588 172.193 236.921C172.043 237.253 171.96 237.612 171.949 237.976C171.938 238.341 171.999 238.704 172.128 239.045C172.258 239.385 172.453 239.697 172.704 239.962Z" stroke="white" stroke-width="0.75" stroke-miterlimit="10"/>
<path d="M207.662 238.199C207.776 234.498 204.868 231.406 201.167 231.292C197.466 231.179 194.374 234.086 194.26 237.787C194.147 241.488 197.054 244.58 200.755 244.694C204.456 244.808 207.548 241.9 207.662 238.199Z" fill="#59A9EA"/>
<path d="M198.919 242.737C199.296 243.137 199.782 243.416 200.317 243.539C200.851 243.662 201.411 243.624 201.924 243.43C202.437 243.235 202.881 242.893 203.199 242.446C203.518 241.999 203.697 241.468 203.713 240.919C203.73 240.371 203.583 239.829 203.292 239.364C203.002 238.899 202.579 238.53 202.079 238.305C201.578 238.08 201.023 238.008 200.481 238.098C199.94 238.189 199.438 238.438 199.038 238.814C198.772 239.064 198.558 239.363 198.409 239.696C198.259 240.028 198.176 240.387 198.165 240.751C198.154 241.115 198.215 241.479 198.344 241.819C198.474 242.16 198.669 242.472 198.919 242.737Z" stroke="white" stroke-width="0.75" stroke-miterlimit="10"/>
<path d="M222.104 238.196C222.218 234.496 219.31 231.404 215.609 231.29C211.909 231.176 208.816 234.084 208.703 237.785C208.589 241.485 211.497 244.578 215.198 244.691C218.898 244.805 221.991 241.897 222.104 238.196Z" fill="#EA5777"/>
<path d="M213.36 242.737C213.736 243.137 214.222 243.416 214.757 243.539C215.292 243.662 215.851 243.624 216.364 243.43C216.877 243.235 217.321 242.893 217.639 242.446C217.958 241.999 218.137 241.468 218.153 240.919C218.17 240.371 218.024 239.829 217.733 239.364C217.442 238.899 217.02 238.53 216.519 238.305C216.019 238.08 215.463 238.008 214.922 238.098C214.38 238.189 213.878 238.438 213.479 238.814C212.943 239.319 212.63 240.016 212.608 240.751C212.585 241.487 212.856 242.201 213.36 242.737Z" stroke="white" stroke-width="0.75" stroke-miterlimit="10"/>
<mask id="mask2_54_7092" style="mask-type:luminance" maskUnits="userSpaceOnUse" x="179" y="231" width="15" height="14">
<path d="M189.899 243.761C193.089 241.881 194.15 237.771 192.27 234.581C190.389 231.392 186.28 230.33 183.09 232.211C179.901 234.091 178.839 238.201 180.719 241.39C182.6 244.58 186.71 245.641 189.899 243.761Z" fill="white"/>
</mask>
<g mask="url(#mask2_54_7092)">
<path d="M189.899 243.761C193.089 241.881 194.15 237.771 192.27 234.581C190.389 231.392 186.28 230.33 183.09 232.211C179.901 234.091 178.839 238.201 180.719 241.39C182.6 244.58 186.71 245.641 189.899 243.761Z" fill="#EB82B9"/>
<path d="M182.253 232.33L193.346 239.03" stroke="white" stroke-width="0.75" stroke-miterlimit="10"/>
<path d="M179.508 236.874L190.601 243.575" stroke="white" stroke-width="0.75" stroke-miterlimit="10"/>
<path d="M181.092 236.335C181.096 236.857 181.255 237.366 181.549 237.798C181.843 238.23 182.258 238.565 182.742 238.761C183.226 238.957 183.758 239.005 184.269 238.899C184.78 238.793 185.249 238.538 185.615 238.166C185.981 237.793 186.229 237.321 186.327 236.808C186.425 236.295 186.368 235.764 186.164 235.283C185.961 234.802 185.619 234.393 185.182 234.106C184.746 233.819 184.234 233.669 183.712 233.673C183.011 233.679 182.342 233.963 181.851 234.462C181.36 234.961 181.087 235.635 181.092 236.335Z" stroke="white" stroke-width="0.75" stroke-miterlimit="10"/>
</g>
<path d="M164.824 231.273C168.527 231.273 171.528 228.271 171.528 224.569C171.528 220.866 168.527 217.865 164.824 217.865C161.122 217.865 158.12 220.866 158.12 224.569C158.12 228.271 161.122 231.273 164.824 231.273Z" fill="#EF9A60"/>
<path d="M165.5 223.742C166.086 222.326 165.414 220.703 163.998 220.117C162.582 219.53 160.959 220.203 160.373 221.619C159.786 223.034 160.459 224.658 161.874 225.244C163.29 225.83 164.913 225.158 165.5 223.742Z" stroke="white" stroke-width="0.75" stroke-miterlimit="10"/>
<path d="M185.992 224.789C186.106 221.089 183.198 217.996 179.498 217.883C175.797 217.769 172.705 220.677 172.591 224.377C172.477 228.078 175.385 231.17 179.086 231.284C182.787 231.398 185.879 228.49 185.992 224.789Z" fill="#EB82B9"/>
<path d="M179.919 226.551C180.295 226.951 180.781 227.231 181.316 227.354C181.851 227.478 182.41 227.44 182.923 227.246C183.436 227.052 183.88 226.71 184.199 226.263C184.518 225.817 184.697 225.285 184.714 224.737C184.731 224.188 184.585 223.647 184.295 223.182C184.004 222.716 183.582 222.347 183.082 222.122C182.582 221.896 182.026 221.824 181.485 221.914C180.944 222.004 180.441 222.253 180.041 222.628C179.505 223.133 179.192 223.829 179.169 224.565C179.146 225.3 179.416 226.015 179.919 226.551Z" stroke="white" stroke-width="0.75" stroke-miterlimit="10"/>
<path d="M209.513 231.121C213.14 230.379 215.479 226.837 214.737 223.21C213.995 219.582 210.453 217.243 206.826 217.985C203.198 218.727 200.859 222.269 201.601 225.896C202.343 229.524 205.885 231.863 209.513 231.121Z" fill="#EF9A60"/>
<path d="M213.262 225.44C213.565 224.982 213.725 224.445 213.722 223.896C213.719 223.347 213.554 222.811 213.246 222.356C212.939 221.902 212.504 221.548 211.996 221.341C211.488 221.134 210.929 221.082 210.392 221.191C209.854 221.301 209.361 221.568 208.975 221.959C208.589 222.349 208.327 222.845 208.223 223.383C208.119 223.922 208.177 224.48 208.39 224.986C208.602 225.492 208.96 225.923 209.418 226.226C210.032 226.631 210.782 226.776 211.503 226.629C212.224 226.481 212.857 226.054 213.262 225.44Z" stroke="white" stroke-width="0.75" stroke-miterlimit="10"/>
<mask id="mask3_54_7092" style="mask-type:luminance" maskUnits="userSpaceOnUse" x="187" y="215" width="15" height="15">
<path d="M201.129 224.267C202.092 220.676 199.961 216.984 196.369 216.021C192.778 215.058 189.086 217.19 188.124 220.781C187.161 224.372 189.292 228.064 192.883 229.027C196.475 229.989 200.167 227.858 201.129 224.267Z" fill="white"/>
</mask>
<g mask="url(#mask3_54_7092)">
<path d="M201.129 224.267C202.092 220.676 199.961 216.984 196.369 216.021C192.778 215.059 189.086 217.19 188.124 220.781C187.161 224.373 189.292 228.064 192.883 229.027C196.475 229.99 200.167 227.859 201.129 224.267Z" fill="#91EA78"/>
<path d="M186.766 223.299L199.462 220.694" stroke="white" stroke-width="0.75" stroke-miterlimit="10"/>
<path d="M187.835 228.498L200.528 225.894" stroke="white" stroke-width="0.75" stroke-miterlimit="10"/>
<path d="M199.535 224.004C199.58 222.546 198.435 221.328 196.977 221.283C195.519 221.238 194.301 222.384 194.256 223.842C194.211 225.299 195.357 226.517 196.815 226.562C198.272 226.607 199.49 225.462 199.535 224.004Z" stroke="white" stroke-width="0.75" stroke-miterlimit="10"/>
</g>
<path d="M178.721 210.676C178.835 206.976 175.927 203.883 172.227 203.77C168.526 203.656 165.434 206.564 165.32 210.265C165.206 213.965 168.114 217.058 171.815 217.171C175.516 217.285 178.608 214.377 178.721 210.676Z" fill="#59A9EA"/>
<path d="M172.649 212.443C173.025 212.843 173.511 213.122 174.045 213.246C174.58 213.369 175.139 213.332 175.653 213.138C176.166 212.943 176.61 212.601 176.929 212.155C177.248 211.708 177.427 211.177 177.444 210.629C177.461 210.08 177.315 209.539 177.024 209.073C176.734 208.608 176.312 208.239 175.812 208.013C175.312 207.787 174.756 207.715 174.214 207.805C173.673 207.896 173.171 208.144 172.771 208.52C172.505 208.769 172.291 209.069 172.141 209.401C171.991 209.733 171.908 210.092 171.897 210.456C171.886 210.821 171.946 211.184 172.075 211.524C172.204 211.865 172.399 212.177 172.649 212.443Z" stroke="white" stroke-width="0.75" stroke-miterlimit="10"/>
<path d="M207.716 210.675C207.83 206.974 204.922 203.882 201.221 203.768C197.52 203.655 194.428 206.562 194.315 210.263C194.201 213.964 197.109 217.056 200.809 217.17C204.51 217.284 207.602 214.376 207.716 210.675Z" fill="#F9CE00"/>
<path d="M198.971 215.218C199.347 215.618 199.833 215.897 200.368 216.021C200.902 216.144 201.462 216.107 201.975 215.912C202.488 215.718 202.932 215.376 203.251 214.93C203.57 214.483 203.749 213.952 203.766 213.403C203.783 212.855 203.637 212.314 203.347 211.848C203.056 211.383 202.634 211.014 202.134 210.788C201.634 210.562 201.078 210.49 200.537 210.58C199.995 210.67 199.493 210.919 199.093 211.295C198.827 211.544 198.613 211.844 198.464 212.176C198.314 212.508 198.231 212.867 198.219 213.231C198.208 213.595 198.269 213.958 198.398 214.299C198.527 214.64 198.722 214.952 198.971 215.218Z" stroke="white" stroke-width="0.75" stroke-miterlimit="10"/>
<mask id="mask4_54_7092" style="mask-type:luminance" maskUnits="userSpaceOnUse" x="179" y="203" width="15" height="15">
<path d="M190.206 216.049C193.29 214 194.129 209.839 192.08 206.755C190.031 203.671 185.87 202.832 182.786 204.881C179.702 206.93 178.863 211.091 180.912 214.175C182.961 217.259 187.122 218.098 190.206 216.049Z" fill="white"/>
</mask>
<g mask="url(#mask4_54_7092)">
<path d="M190.206 216.049C193.29 214 194.129 209.839 192.08 206.755C190.031 203.671 185.87 202.832 182.786 204.881C179.702 206.93 178.863 211.091 180.912 214.175C182.961 217.259 187.122 218.098 190.206 216.049Z" fill="#EA5777"/>
<path d="M179.545 209.19L192.24 206.583" stroke="white" stroke-width="0.75" stroke-miterlimit="10"/>
<path d="M180.614 214.389L193.306 211.782" stroke="white" stroke-width="0.75" stroke-miterlimit="10"/>
<path d="M184.573 212.269C184.931 212.649 185.394 212.915 185.903 213.032C186.412 213.149 186.944 213.113 187.432 212.927C187.921 212.742 188.343 212.416 188.646 211.991C188.949 211.566 189.119 211.06 189.135 210.538C189.151 210.016 189.011 209.501 188.735 209.058C188.458 208.616 188.056 208.265 187.58 208.05C187.103 207.836 186.574 207.768 186.059 207.854C185.544 207.94 185.066 208.177 184.686 208.535C184.433 208.773 184.23 209.058 184.088 209.374C183.945 209.691 183.866 210.032 183.856 210.379C183.845 210.726 183.903 211.071 184.027 211.395C184.15 211.72 184.335 212.017 184.573 212.269Z" stroke="white" stroke-width="0.75" stroke-miterlimit="10"/>
</g>
<path d="M179.386 178.692L147.341 234.194C146.624 235.443 146.248 236.858 146.25 238.298C146.251 239.738 146.631 241.152 147.351 242.399C148.072 243.647 149.106 244.683 150.353 245.404C151.599 246.126 153.013 246.508 154.453 246.511H218.541C219.981 246.507 221.394 246.125 222.64 245.403C223.886 244.681 224.92 243.645 225.64 242.398C226.36 241.151 226.74 239.737 226.741 238.297C226.743 236.857 226.367 235.442 225.65 234.194L193.598 178.692C192.874 177.449 191.837 176.418 190.59 175.701C189.344 174.985 187.931 174.608 186.492 174.608C185.054 174.608 183.641 174.985 182.394 175.701C181.147 176.418 180.11 177.449 179.386 178.692Z" stroke="white" stroke-width="2.25" stroke-miterlimit="10" stroke-linecap="round"/>
<g style="mix-blend-mode:multiply" opacity="0.56">
<path d="M309.752 69.333C309.545 68.9302 309.26 68.5723 308.914 68.28C308.567 67.9877 308.167 67.7667 307.735 67.6297C307.303 67.4927 306.848 67.4424 306.397 67.4817C305.945 67.5211 305.506 67.6492 305.104 67.8588L303.703 68.5899L298.406 71.3159L298.422 71.3464L297.243 71.9555L297.225 71.922L296.759 72.1627L296.777 72.1992L259.447 91.6806L125.748 161.431L119.209 164.781L119.227 164.818L117.857 165.534C117.332 165.825 116.942 166.309 116.768 166.883C116.594 167.457 116.65 168.076 116.925 168.61C117.2 169.143 117.671 169.548 118.24 169.74C118.808 169.932 119.429 169.895 119.97 169.636L121.347 168.936L262.343 97.3032L299.881 78.227L299.905 78.2727L300.371 78.032L300.35 77.9894L301.541 77.3802L306.85 74.6938L308.257 73.978C308.661 73.7724 309.021 73.4888 309.315 73.1436C309.609 72.7985 309.832 72.3985 309.971 71.9667C310.11 71.535 310.162 71.08 310.125 70.628C310.087 70.176 309.961 69.7359 309.752 69.333Z" fill="#F2E3E5"/>
</g>
<path d="M115.429 164.443C114.905 164.735 114.514 165.218 114.34 165.793C114.166 166.367 114.223 166.986 114.497 167.519C114.772 168.053 115.244 168.458 115.812 168.65C116.381 168.841 117.001 168.804 117.543 168.546L118.92 167.846L116.788 163.728L115.429 164.443Z" fill="#353535"/>
<path d="M123.321 160.328L125.459 164.48L118.92 167.846L259.913 96.1976L257.019 90.5719L123.321 160.328Z" fill="#F9CE00"/>
<path d="M116.781 163.694L116.8 163.728L123.321 160.328L116.781 163.694Z" fill="white"/>
<path d="M123.321 160.328L116.8 163.728L118.92 167.846L125.459 164.48L123.321 160.328Z" fill="white"/>
<path d="M307.322 68.2275C307.115 67.8244 306.83 67.4662 306.484 67.1736C306.137 66.8809 305.737 66.6596 305.305 66.5223C304.873 66.385 304.418 66.3345 303.967 66.3736C303.515 66.4127 303.076 66.5407 302.674 66.7502L257.019 90.5719L259.913 96.1977L305.823 72.8663C306.227 72.6613 306.587 72.3783 306.881 72.0338C307.175 71.6892 307.398 71.2899 307.538 70.8587C307.677 70.4276 307.73 69.9731 307.693 69.5215C307.656 69.0699 307.529 68.6302 307.322 68.2275Z" fill="#353535"/>
<path d="M117.461 165.013L258.067 92.6096" stroke="white" stroke-width="1.5" stroke-miterlimit="10"/>
<path d="M301.276 67.4811L304.422 73.5881L299.104 76.2806L295.979 70.2102L301.276 67.4811Z" fill="white"/>
<path d="M297.709 77.0451L294.566 70.9382" stroke="white" stroke-width="1.5" stroke-miterlimit="10"/>
<g style="mix-blend-mode:multiply" opacity="0.56">
<path d="M236.185 145.403L232.776 158.596L245.66 161.926L249.069 148.732L236.185 145.403Z" fill="#F2E3E5"/>
</g>
<path d="M246.439 146.039L233.555 142.709L230.145 155.903L243.029 159.233L246.439 146.039Z" fill="#59A9EA"/>
<path d="M241.592 151.864C241.745 151.206 241.701 150.518 241.466 149.885C241.23 149.252 240.812 148.703 240.266 148.306C239.719 147.909 239.068 147.683 238.393 147.654C237.718 147.626 237.05 147.798 236.472 148.147C235.894 148.497 235.432 149.009 235.144 149.62C234.856 150.231 234.755 150.913 234.853 151.581C234.95 152.25 235.243 152.874 235.694 153.377C236.146 153.88 236.735 154.238 237.389 154.407C237.832 154.517 238.292 154.538 238.743 154.469C239.194 154.401 239.628 154.244 240.018 154.008C240.409 153.771 240.749 153.46 241.019 153.093C241.289 152.725 241.484 152.307 241.592 151.864Z" fill="#3C96D3"/>
<path d="M244.331 147.316L234.779 144.847L232.252 154.626L241.804 157.095L244.331 147.316Z" stroke="white" stroke-width="0.75" stroke-miterlimit="10"/>
<path d="M234.062 143.689L234.748 144.886" stroke="white" stroke-width="0.75" stroke-miterlimit="10"/>
<path d="M244.306 147.356L245.488 146.643" stroke="white" stroke-width="0.75" stroke-miterlimit="10"/>
<path d="M231.044 155.373L232.223 154.66" stroke="white" stroke-width="0.75" stroke-miterlimit="10"/>
<path d="M241.781 157.13L242.466 158.327" stroke="white" stroke-width="0.75" stroke-miterlimit="10"/>
<path d="M271.777 67.5451L270.053 66.543C269.952 66.4818 269.867 66.3972 269.806 66.2963L268.804 64.5754C268.744 64.4716 268.658 64.3855 268.554 64.3256C268.45 64.2657 268.333 64.2342 268.213 64.2342C268.093 64.2342 267.975 64.2657 267.872 64.3256C267.768 64.3855 267.682 64.4716 267.622 64.5754L266.62 66.2963C266.559 66.3978 266.475 66.4826 266.373 66.543L264.652 67.5451C264.549 67.605 264.462 67.6911 264.402 67.7948C264.343 67.8986 264.311 68.0162 264.311 68.136C264.311 68.2558 264.343 68.3734 264.402 68.4772C264.462 68.5809 264.549 68.667 264.652 68.7269L266.373 69.729C266.475 69.7886 266.56 69.8736 266.62 69.9757L267.622 71.6966C267.682 71.8004 267.768 71.8865 267.872 71.9464C267.975 72.0063 268.093 72.0378 268.213 72.0378C268.333 72.0378 268.45 72.0063 268.554 71.9464C268.658 71.8865 268.744 71.8004 268.804 71.6966L269.806 69.9757C269.866 69.8742 269.951 69.7894 270.053 69.729L271.777 68.7269C271.879 68.6664 271.965 68.5801 272.024 68.4764C272.084 68.3728 272.115 68.2554 272.115 68.136C272.115 68.0166 272.084 67.8992 272.024 67.7956C271.965 67.6919 271.879 67.6056 271.777 67.5451Z" fill="white"/>
<path d="M303.859 95.5488L302.135 94.5467C302.034 94.4862 301.95 94.4013 301.891 94.3L300.886 92.576C300.826 92.473 300.74 92.3875 300.636 92.3281C300.533 92.2687 300.416 92.2374 300.296 92.2374C300.177 92.2374 300.06 92.2687 299.957 92.3281C299.853 92.3875 299.767 92.473 299.707 92.576L298.702 94.3C298.642 94.4021 298.557 94.4871 298.455 94.5467L296.734 95.5488C296.631 95.6088 296.546 95.6949 296.486 95.7983C296.427 95.9017 296.396 96.0189 296.396 96.1381C296.396 96.2574 296.427 96.3746 296.486 96.478C296.546 96.5814 296.631 96.6674 296.734 96.7275L298.455 97.7326C298.559 97.7904 298.644 97.8758 298.702 97.9794L299.707 99.7003C299.767 99.8041 299.852 99.8903 299.956 99.9503C300.059 100.01 300.177 100.042 300.296 100.042C300.416 100.042 300.534 100.01 300.637 99.9503C300.741 99.8903 300.826 99.8041 300.886 99.7003L301.891 97.9794C301.949 97.8767 302.033 97.7915 302.135 97.7326L303.859 96.7275C303.962 96.6674 304.047 96.5814 304.106 96.478C304.166 96.3746 304.197 96.2574 304.197 96.1381C304.197 96.0189 304.166 95.9017 304.106 95.7983C304.047 95.6949 303.962 95.6088 303.859 95.5488Z" fill="white"/>
<path d="M278.409 57.3915C278.435 56.505 277.738 55.7648 276.852 55.7382C275.965 55.7116 275.225 56.4087 275.199 57.2952C275.172 58.1817 275.869 58.9219 276.756 58.9485C277.642 58.9751 278.382 58.278 278.409 57.3915Z" fill="#63D398"/>
<path d="M288.13 62.6412C289.016 62.6412 289.735 61.9225 289.735 61.036C289.735 60.1495 289.016 59.4308 288.13 59.4308C287.243 59.4308 286.525 60.1495 286.525 61.036C286.525 61.9225 287.243 62.6412 288.13 62.6412Z" fill="#59A9EA"/>
<path d="M61.362 267.104L59.638 266.099C59.5369 266.04 59.4529 265.956 59.3944 265.855L58.3892 264.131C58.3292 264.028 58.2431 263.943 58.1397 263.883C58.0363 263.824 57.9191 263.793 57.7999 263.793C57.6806 263.793 57.5634 263.824 57.46 263.883C57.3566 263.943 57.2706 264.028 57.2105 264.131L56.2054 265.855C56.1465 265.957 56.0613 266.041 55.9586 266.099L54.2377 267.104C54.1347 267.164 54.0492 267.25 53.9898 267.354C53.9304 267.457 53.8992 267.574 53.8992 267.693C53.8992 267.813 53.9304 267.93 53.9898 268.033C54.0492 268.137 54.1347 268.223 54.2377 268.283L55.9586 269.288C56.0622 269.346 56.1476 269.431 56.2054 269.535L57.2105 271.256C57.2706 271.359 57.3566 271.444 57.46 271.503C57.5634 271.563 57.6806 271.594 57.7999 271.594C57.9191 271.594 58.0363 271.563 58.1397 271.503C58.2431 271.444 58.3292 271.359 58.3892 271.256L59.3944 269.535C59.452 269.432 59.5361 269.347 59.638 269.288L61.362 268.283C61.465 268.223 61.5505 268.137 61.6099 268.033C61.6693 267.93 61.7006 267.813 61.7006 267.693C61.7006 267.574 61.6693 267.457 61.6099 267.354C61.5505 267.25 61.465 267.164 61.362 267.104Z" fill="white"/>
<path d="M51.2406 253.937C51.2406 254.254 51.1465 254.565 50.9701 254.829C50.7937 255.093 50.543 255.298 50.2497 255.42C49.9564 255.541 49.6337 255.573 49.3223 255.511C49.0109 255.449 48.7249 255.296 48.5004 255.072C48.2759 254.848 48.1231 254.561 48.0611 254.25C47.9992 253.939 48.031 253.616 48.1525 253.323C48.2739 253.029 48.4797 252.779 48.7437 252.602C49.0076 252.426 49.318 252.332 49.6354 252.332C50.0612 252.332 50.4695 252.501 50.7705 252.802C51.0715 253.103 51.2406 253.511 51.2406 253.937Z" fill="#EB82B9"/>
<path d="M40.1354 249.121C41.0219 249.121 41.7406 248.403 41.7406 247.516C41.7406 246.63 41.0219 245.911 40.1354 245.911C39.2489 245.911 38.5303 246.63 38.5303 247.516C38.5303 248.403 39.2489 249.121 40.1354 249.121Z" fill="#EA5777"/>
<mask id="mask5_54_7092" style="mask-type:luminance" maskUnits="userSpaceOnUse" x="210" y="161" width="88" height="168">
<path d="M297.709 161.949H210.948V328.954H297.709V161.949Z" fill="white"/>
</mask>
<g mask="url(#mask5_54_7092)">
<g style="mix-blend-mode:multiply" opacity="0.56">
<path d="M302.412 364.435L300.246 358.882H300.216L299.728 357.664H299.765L299.573 357.177L299.537 357.192L284.033 318.04L228.516 177.812L225.845 170.961H225.808L225.239 169.527C225.004 168.974 224.564 168.534 224.011 168.301C223.457 168.068 222.835 168.059 222.275 168.277C221.716 168.495 221.263 168.922 221.013 169.468C220.764 170.014 220.737 170.636 220.938 171.202L221.492 172.646L278.145 320.306L293.226 359.622L293.18 359.641L293.372 360.128L293.414 360.113L293.89 361.352L296.022 366.917L296.588 368.391C296.734 368.836 296.968 369.247 297.278 369.598C297.587 369.948 297.965 370.233 298.388 370.432C298.811 370.632 299.271 370.744 299.738 370.76C300.206 370.776 300.672 370.696 301.108 370.526C301.543 370.356 301.94 370.099 302.273 369.77C302.606 369.441 302.868 369.048 303.044 368.614C303.22 368.181 303.305 367.716 303.295 367.248C303.285 366.78 303.179 366.319 302.985 365.894L302.412 364.435Z" fill="#F2E3E5"/>
</g>
<path d="M222.549 166.859C222.315 166.306 221.874 165.866 221.321 165.633C220.768 165.399 220.145 165.391 219.586 165.609C219.026 165.827 218.574 166.254 218.324 166.8C218.074 167.346 218.047 167.968 218.249 168.534L218.803 169.975L223.119 168.293L222.549 166.859Z" fill="#353535"/>
<path d="M225.827 175.131L221.474 176.828L218.803 169.978L275.45 317.638L281.344 315.341L225.827 175.131Z" fill="#F9CE00"/>
<path d="M223.155 168.281L223.119 168.293L225.827 175.131L223.155 168.281Z" fill="white"/>
<path d="M225.827 175.131L223.119 168.293L218.803 169.975V169.978L221.474 176.828L225.827 175.131Z" fill="white"/>
<path d="M298.355 367.694C298.777 367.529 299.162 367.283 299.489 366.968C299.816 366.654 300.077 366.278 300.258 365.863C300.439 365.447 300.536 365 300.543 364.547C300.55 364.094 300.468 363.644 300.301 363.223L281.344 315.342L275.45 317.638L293.893 365.72C294.056 366.143 294.3 366.53 294.613 366.858C294.925 367.186 295.3 367.45 295.714 367.633C296.129 367.817 296.575 367.916 297.028 367.927C297.482 367.937 297.932 367.858 298.355 367.694Z" fill="#353535"/>
<path d="M221.773 168.82L279.209 316.173" stroke="white" stroke-width="1.5" stroke-miterlimit="10"/>
</g>
</svg>
