<svg width="172" height="52" viewBox="0 0 172 52" fill="none" xmlns="http://www.w3.org/2000/svg">
<path d="M16.6142 22.9228C15.4601 22.9228 14.4694 23.3446 13.6421 24.1832C12.8121 25.0243 12.3985 26.0374 12.3985 27.2249C12.3985 28.428 12.8121 29.4514 13.6421 30.2978C14.4694 31.1389 15.4601 31.5582 16.6142 31.5582C17.1675 31.5582 17.6918 31.4931 18.1845 31.3603C18.6825 31.2222 19.0487 31.0842 19.2806 30.9436L19.5862 30.7353L21.6624 34.9332C21.4991 35.053 21.2751 35.1988 20.9879 35.3707C20.6981 35.5374 20.042 35.7665 19.0171 36.0582C17.9895 36.3551 16.8908 36.5061 15.7183 36.5061C13.1178 36.5061 10.8308 35.6051 8.85729 33.7978C6.88909 31.9853 5.90631 29.816 5.90631 27.2874C5.90631 24.7405 6.88909 22.553 8.85729 20.7249C10.8308 18.8915 13.1178 17.9749 15.7183 17.9749C16.8908 17.9749 17.9737 18.1103 18.9644 18.3811C19.9551 18.6519 20.6559 18.928 21.0722 19.204L21.6624 19.6103L19.5862 23.7457C18.8274 23.1988 17.8367 22.9228 16.6142 22.9228Z" fill="#63D398"/>
<path d="M26.6662 18.4854V26.8083C26.6662 28.5452 26.9297 29.777 27.4567 30.5062C27.9889 31.2301 28.89 31.5895 30.1547 31.5895C31.4194 31.5895 32.3152 31.2301 32.8422 30.5062C33.3744 29.777 33.6432 28.5452 33.6432 26.8083V18.4854H39.7559V28.277C39.7559 31.1937 38.9892 33.2952 37.4584 34.5791C35.9249 35.8656 33.4904 36.5062 30.1547 36.5062C26.8164 36.5062 24.3818 35.8656 22.851 34.5791C21.3176 33.2952 20.5535 31.1937 20.5535 28.277V18.4854H26.6662Z" fill="#63D398"/>
<path d="M58.2253 28.079H45.378C45.378 29.3082 45.7812 30.2196 46.59 30.8082C47.3963 31.3993 48.2711 31.6936 49.2143 31.6936C50.205 31.6936 50.9875 31.566 51.5646 31.3082C52.1389 31.0452 52.7976 30.5243 53.5354 29.7457L57.9513 31.9332C56.1096 34.9827 53.0453 36.5061 48.7611 36.5061C46.0894 36.5061 43.7998 35.6051 41.8896 33.7978C39.9767 31.9853 39.0229 29.8056 39.0229 27.2561C39.0229 24.7092 39.9767 22.5243 41.8896 20.704C43.7998 18.8863 46.0894 17.9749 48.7611 17.9749C51.5698 17.9749 53.8568 18.7769 55.6222 20.3811C57.3848 21.9853 58.2675 24.2769 58.2675 27.2561C58.2675 27.6676 58.2517 27.941 58.2253 28.079ZM45.5572 24.7353H52.2918C52.1495 23.8264 51.7859 23.1285 51.1957 22.6415C50.6108 22.1493 49.8598 21.9019 48.9403 21.9019C47.9285 21.9019 47.1196 22.1624 46.5163 22.6832C45.9182 23.204 45.5994 23.8889 45.5572 24.7353Z" fill="#63D398"/>
<path d="M78.1263 18.4854L69.6949 26.8499L78.9589 35.9958H71.0756L64.0037 28.9958V35.9958H57.891V6.6416H64.0037V24.5895L70.1797 18.4854H78.1263Z" fill="#545454"/>
<path d="M94.8697 28.079H82.0224C82.0224 29.3082 82.4255 30.2196 83.2344 30.8082C84.0406 31.3993 84.9154 31.6936 85.8587 31.6936C86.8493 31.6936 87.6319 31.566 88.2089 31.3082C88.7833 31.0452 89.442 30.5243 90.1797 29.7457L94.5957 31.9332C92.7539 34.9827 89.6897 36.5061 85.4055 36.5061C82.7338 36.5061 80.4441 35.6051 78.5339 33.7978C76.621 31.9853 75.6672 29.8056 75.6672 27.2561C75.6672 24.7092 76.621 22.5243 78.5339 20.704C80.4441 18.8863 82.7338 17.9749 85.4055 17.9749C88.2142 17.9749 90.5012 18.7769 92.2665 20.3811C94.0292 21.9853 94.9118 24.2769 94.9118 27.2561C94.9118 27.6676 94.896 27.941 94.8697 28.079ZM82.2016 24.7353H88.9361C88.7938 23.8264 88.4302 23.1285 87.84 22.6415C87.2551 22.1493 86.5042 21.9019 85.5846 21.9019C84.5729 21.9019 83.764 22.1624 83.1606 22.6832C82.5625 23.204 82.2437 23.8889 82.2016 24.7353Z" fill="#545454"/>
<path d="M112.447 28.079H99.5994C99.5994 29.3082 100.003 30.2196 100.811 30.8082C101.618 31.3993 102.492 31.6936 103.436 31.6936C104.426 31.6936 105.209 31.566 105.786 31.3082C106.36 31.0452 107.019 30.5243 107.757 29.7457L112.173 31.9332C110.331 34.9827 107.267 36.5061 102.982 36.5061C100.311 36.5061 98.0212 35.6051 96.1109 33.7978C94.1981 31.9853 93.2443 29.8056 93.2443 27.2561C93.2443 24.7092 94.1981 22.5243 96.1109 20.704C98.0212 18.8863 100.311 17.9749 102.982 17.9749C105.791 17.9749 108.078 18.7769 109.844 20.3811C111.606 21.9853 112.489 24.2769 112.489 27.2561C112.489 27.6676 112.473 27.941 112.447 28.079ZM99.7786 24.7353H106.513C106.371 23.8264 106.007 23.1285 105.417 22.6415C104.832 22.1493 104.081 21.9019 103.162 21.9019C102.15 21.9019 101.341 22.1624 100.738 22.6832C100.14 23.204 99.8207 23.8889 99.7786 24.7353Z" fill="#545454"/>
<path d="M130.34 20.6519C131.997 22.4384 132.827 24.6285 132.827 27.2249C132.827 29.816 131.997 32.0113 130.34 33.8082C128.68 35.6077 126.572 36.5061 124.016 36.5061C121.669 36.5061 119.738 35.7769 118.22 34.3186V44.8707H112.107V18.4853H118.146V20.4644H118.22C119.738 18.8056 121.669 17.9749 124.016 17.9749C126.572 17.9749 128.68 18.8681 130.34 20.6519ZM125.144 30.1936C125.937 29.4176 126.335 28.428 126.335 27.2249C126.335 26.0165 125.95 25.0347 125.186 24.2769C124.427 23.5139 123.429 23.1311 122.193 23.1311C120.992 23.1311 120.004 23.5165 119.232 24.2874C118.465 25.0582 118.083 26.0374 118.083 27.2249C118.083 28.428 118.478 29.4176 119.274 30.1936C120.067 30.9644 121.039 31.3499 122.193 31.3499C123.366 31.3499 124.348 30.9644 125.144 30.1936Z" fill="#545454"/>
<path d="M150.364 28.079H137.516C137.516 29.3082 137.919 30.2196 138.728 30.8082C139.535 31.3993 140.409 31.6936 141.353 31.6936C142.343 31.6936 143.126 31.566 143.703 31.3082C144.277 31.0452 144.936 30.5243 145.674 29.7457L150.09 31.9332C148.248 34.9827 145.184 36.5061 140.899 36.5061C138.228 36.5061 135.938 35.6051 134.028 33.7978C132.115 31.9853 131.161 29.8056 131.161 27.2561C131.161 24.7092 132.115 22.5243 134.028 20.704C135.938 18.8863 138.228 17.9749 140.899 17.9749C143.708 17.9749 145.995 18.7769 147.76 20.3811C149.523 21.9853 150.406 24.2769 150.406 27.2561C150.406 27.6676 150.39 27.941 150.364 28.079ZM137.695 24.7353H144.43C144.288 23.8264 143.924 23.1285 143.334 22.6415C142.749 22.1493 141.998 21.9019 141.079 21.9019C140.067 21.9019 139.258 22.1624 138.655 22.6832C138.056 23.204 137.738 23.8889 137.695 24.7353Z" fill="#545454"/>
<path d="M150.024 35.9957V18.4853H156.137V21.0061H156.2C156.247 20.9176 156.321 20.8056 156.421 20.6728C156.527 20.5347 156.751 20.2952 157.096 19.954C157.446 19.6155 157.815 19.3082 158.202 19.0374C158.595 18.7613 159.101 18.5139 159.72 18.2978C160.345 18.0842 160.98 17.9749 161.628 17.9749C162.294 17.9749 162.948 18.066 163.588 18.2457C164.233 18.428 164.708 18.6077 165.011 18.7874L165.496 19.0686L162.935 24.1832C162.176 23.5452 161.117 23.2249 159.762 23.2249C159.024 23.2249 158.387 23.3863 157.855 23.704C157.328 24.0243 156.954 24.4124 156.737 24.8707C156.519 25.3238 156.363 25.7092 156.274 26.0269C156.182 26.3472 156.137 26.5972 156.137 26.7769V35.9957H150.024Z" fill="#545454"/>
<path d="M16.3963 38.6733C17.2026 38.6733 17.6084 39.1733 17.6084 40.1733V42.0067C17.6084 42.1056 17.5767 42.1838 17.5135 42.2463C17.4555 42.3088 17.3791 42.34 17.2816 42.34C17.1815 42.34 17.1025 42.3088 17.0392 42.2463C16.976 42.1838 16.9444 42.1056 16.9444 42.0067V40.1838C16.9444 39.5796 16.6914 39.2775 16.1856 39.2775C16.0011 39.2775 15.8378 39.3192 15.6902 39.4025C15.5427 39.4806 15.4267 39.5874 15.3424 39.7254C15.2634 39.866 15.2265 40.0171 15.2265 40.1838V42.0067C15.2265 42.1056 15.1949 42.1838 15.1316 42.2463C15.0684 42.3088 14.9894 42.34 14.8998 42.34C14.7997 42.34 14.7206 42.3088 14.6574 42.2463C14.5994 42.1838 14.5731 42.1056 14.5731 42.0067V40.1733C14.5731 39.9025 14.5125 39.689 14.3939 39.5275C14.2806 39.3608 14.0883 39.2775 13.8142 39.2775C13.5402 39.2775 13.3136 39.366 13.1397 39.5379C12.9632 39.7124 12.8763 39.9233 12.8763 40.1733V42.0067C12.8763 42.1056 12.8446 42.1838 12.7814 42.2463C12.7182 42.3088 12.6365 42.34 12.539 42.34C12.4389 42.34 12.3598 42.3088 12.2966 42.2463C12.2386 42.1838 12.2123 42.1056 12.2123 42.0067V39.0692C12.2123 38.9806 12.2439 38.9025 12.3071 38.84C12.3704 38.7723 12.4468 38.7358 12.539 38.7358C12.6365 38.7358 12.7182 38.7723 12.7814 38.84C12.8446 38.9025 12.8763 38.9806 12.8763 39.0692V39.3088C12.9948 39.1291 13.1529 38.9806 13.3505 38.8608C13.5534 38.7358 13.7747 38.6733 14.0145 38.6733C14.5889 38.6733 14.963 38.9285 15.1316 39.4338C15.237 39.241 15.4057 39.0666 15.6375 38.9129C15.8747 38.7541 16.1276 38.6733 16.3963 38.6733Z" fill="black"/>
<path d="M21.9586 38.6943C22.0561 38.6943 22.1378 38.7255 22.201 38.788C22.2643 38.8453 22.2959 38.9234 22.2959 39.0276V42.0068C22.2959 42.1057 22.2643 42.1838 22.201 42.2463C22.1378 42.3088 22.0561 42.3401 21.9586 42.3401C21.8664 42.3401 21.79 42.3088 21.7268 42.2463C21.6635 42.1838 21.6319 42.1057 21.6319 42.0068V41.8297C21.5107 41.9911 21.3473 42.1292 21.1366 42.2463C20.931 42.3557 20.7071 42.413 20.4621 42.413C20.1511 42.413 19.8666 42.3349 19.6084 42.1734C19.3475 42.0068 19.1446 41.7828 18.9971 41.4963C18.8548 41.2125 18.7863 40.8896 18.7863 40.5276C18.7863 40.1734 18.8548 39.8557 18.9971 39.5693C19.1446 39.2776 19.3449 39.0536 19.5978 38.8922C19.856 38.7333 20.138 38.6526 20.441 38.6526C20.686 38.6526 20.9152 38.7047 21.126 38.8088C21.3421 38.9078 21.5107 39.0354 21.6319 39.1943V39.0276C21.6319 38.9312 21.6635 38.8505 21.7268 38.788C21.79 38.7255 21.8664 38.6943 21.9586 38.6943ZM20.5464 41.8088C20.7624 41.8088 20.9574 41.7542 21.126 41.6422C21.2946 41.5328 21.4238 41.3792 21.516 41.1838C21.6135 40.9911 21.6635 40.7724 21.6635 40.5276C21.6635 40.2932 21.6135 40.0797 21.516 39.8922C21.4238 39.6995 21.2946 39.5458 21.126 39.4338C20.9574 39.3167 20.7624 39.2568 20.5464 39.2568C20.3277 39.2568 20.1353 39.314 19.9667 39.4234C19.7981 39.5354 19.6637 39.689 19.5662 39.8818C19.4661 40.0693 19.4187 40.2854 19.4187 40.5276C19.4187 40.7724 19.4661 40.9911 19.5662 41.1838C19.6637 41.3792 19.7981 41.5328 19.9667 41.6422C20.1353 41.7542 20.3277 41.8088 20.5464 41.8088Z" fill="black"/>
<path d="M25.5457 38.6526C26.3809 38.6526 26.7999 39.15 26.7999 40.1422V42.0068C26.7999 42.1057 26.7682 42.1838 26.705 42.2463C26.6418 42.3088 26.5601 42.3401 26.4626 42.3401C26.3704 42.3401 26.294 42.3088 26.2307 42.2463C26.1675 42.1838 26.1359 42.1057 26.1359 42.0068V40.1422C26.1359 39.8792 26.0727 39.6682 25.9462 39.5068C25.825 39.3401 25.6221 39.2568 25.3349 39.2568C25.1505 39.2568 24.9819 39.2984 24.829 39.3818C24.6815 39.4599 24.5656 39.5667 24.4812 39.7047C24.3969 39.8375 24.3548 39.9833 24.3548 40.1422V42.0068C24.3548 42.1057 24.3231 42.1838 24.2599 42.2463C24.1967 42.3088 24.115 42.3401 24.0175 42.3401C23.9174 42.3401 23.8383 42.3088 23.7751 42.2463C23.7171 42.1838 23.6908 42.1057 23.6908 42.0068V39.0693C23.6908 38.9807 23.7224 38.9026 23.7856 38.8401C23.8489 38.7724 23.9253 38.7359 24.0175 38.7359C24.115 38.7359 24.1967 38.7724 24.2599 38.8401C24.3231 38.9026 24.3548 38.9807 24.3548 39.0693V39.3088C24.4733 39.1292 24.6393 38.9755 24.8501 38.8505C25.0662 38.7203 25.298 38.6526 25.5457 38.6526Z" fill="black"/>
<path d="M31.1512 38.6943C31.2487 38.6943 31.3304 38.7255 31.3936 38.788C31.4569 38.8453 31.4885 38.9234 31.4885 39.0276V42.0068C31.4885 42.1057 31.4569 42.1838 31.3936 42.2463C31.3304 42.3088 31.2487 42.3401 31.1512 42.3401C31.059 42.3401 30.9826 42.3088 30.9194 42.2463C30.8561 42.1838 30.8245 42.1057 30.8245 42.0068V41.8297C30.7033 41.9911 30.54 42.1292 30.3292 42.2463C30.1237 42.3557 29.8997 42.413 29.6547 42.413C29.3438 42.413 29.0592 42.3349 28.801 42.1734C28.5402 42.0068 28.3373 41.7828 28.1897 41.4963C28.0474 41.2125 27.9789 40.8896 27.9789 40.5276C27.9789 40.1734 28.0474 39.8557 28.1897 39.5693C28.3373 39.2776 28.5375 39.0536 28.7905 38.8922C29.0487 38.7333 29.3306 38.6526 29.6336 38.6526C29.8786 38.6526 30.1079 38.7047 30.3186 38.8088C30.5347 38.9078 30.7033 39.0354 30.8245 39.1943V39.0276C30.8245 38.9312 30.8561 38.8505 30.9194 38.788C30.9826 38.7255 31.059 38.6943 31.1512 38.6943ZM29.739 41.8088C29.955 41.8088 30.15 41.7542 30.3186 41.6422C30.4873 41.5328 30.6164 41.3792 30.7086 41.1838C30.8061 40.9911 30.8561 40.7724 30.8561 40.5276C30.8561 40.2932 30.8061 40.0797 30.7086 39.8922C30.6164 39.6995 30.4873 39.5458 30.3186 39.4338C30.15 39.3167 29.955 39.2568 29.739 39.2568C29.5203 39.2568 29.328 39.314 29.1593 39.4234C28.9907 39.5354 28.8563 39.689 28.7588 39.8818C28.6587 40.0693 28.6113 40.2854 28.6113 40.5276C28.6113 40.7724 28.6587 40.9911 28.7588 41.1838C28.8563 41.3792 28.9907 41.5328 29.1593 41.6422C29.328 41.7542 29.5203 41.8088 29.739 41.8088Z" fill="black"/>
<path d="M35.9293 38.6943C36.0268 38.6943 36.1085 38.7255 36.1717 38.788C36.235 38.8453 36.2666 38.9234 36.2666 39.0276V42.0484C36.2666 42.4234 36.1849 42.7359 36.0242 42.9859C35.8608 43.2359 35.6448 43.4182 35.3707 43.538C35.0967 43.6552 34.7858 43.7151 34.4433 43.7151C34.2589 43.7151 34.0428 43.6838 33.7899 43.6213C33.5422 43.5588 33.3841 43.4911 33.3156 43.4234C33.1733 43.3453 33.1048 43.2515 33.1048 43.1422C33.1048 43.1135 33.1154 43.0797 33.1364 43.038C33.1839 42.9182 33.2682 42.8609 33.3894 42.8609C33.4526 42.8609 33.5185 42.8739 33.5896 42.9026C33.9532 43.0484 34.2431 43.1213 34.4538 43.1213C34.8253 43.1213 35.1099 43.0302 35.3075 42.8505C35.5025 42.676 35.6026 42.4364 35.6026 42.1318V41.7568C35.5025 41.939 35.3391 42.0953 35.1073 42.2255C34.8807 42.3505 34.6383 42.413 34.3801 42.413C34.0639 42.413 33.7714 42.3349 33.5053 42.1734C33.2445 42.0068 33.0363 41.7828 32.8835 41.4963C32.7359 41.2125 32.6622 40.8896 32.6622 40.5276C32.6622 40.1734 32.7359 39.8557 32.8835 39.5693C33.0363 39.2776 33.2445 39.0536 33.5053 38.8922C33.7635 38.7333 34.0533 38.6526 34.3695 38.6526C34.6225 38.6526 34.857 38.7125 35.0757 38.8297C35.2996 38.9417 35.4761 39.0797 35.6026 39.2463V39.0276C35.6026 38.9312 35.629 38.8505 35.6869 38.788C35.7502 38.7255 35.8292 38.6943 35.9293 38.6943ZM34.4644 41.8088C34.6883 41.8088 34.8886 41.7542 35.0651 41.6422C35.239 41.5328 35.376 41.3792 35.4761 41.1838C35.5815 40.9911 35.6342 40.7724 35.6342 40.5276C35.6342 40.2854 35.5815 40.0693 35.4761 39.8818C35.376 39.689 35.239 39.5354 35.0651 39.4234C34.8886 39.314 34.6883 39.2568 34.4644 39.2568C34.2378 39.2568 34.0375 39.314 33.8636 39.4234C33.6871 39.5354 33.5475 39.689 33.4421 39.8818C33.3419 40.0771 33.2945 40.2932 33.2945 40.5276C33.2945 40.7724 33.3419 40.9911 33.4421 41.1838C33.5475 41.3792 33.6871 41.5328 33.8636 41.6422C34.0375 41.7542 34.2378 41.8088 34.4644 41.8088Z" fill="black"/>
<path d="M40.8504 40.4026C40.8504 40.4859 40.8135 40.5562 40.745 40.6109C40.6817 40.6682 40.608 40.6943 40.5237 40.6943H38.068C38.1023 41.0276 38.2314 41.2984 38.458 41.5068C38.6819 41.7099 38.956 41.8088 39.28 41.8088C39.504 41.8088 39.6858 41.7776 39.8281 41.7151C39.9677 41.6474 40.0916 41.564 40.1969 41.4651C40.2654 41.4234 40.334 41.4026 40.3972 41.4026C40.4736 41.4026 40.5368 41.4312 40.5869 41.4859C40.6422 41.5354 40.6712 41.5979 40.6712 41.6734C40.6712 41.7724 40.6238 41.8583 40.5342 41.9338C40.3998 42.0667 40.2207 42.1812 39.9967 42.2776C39.778 42.3661 39.5541 42.413 39.3222 42.413C38.9428 42.413 38.6082 42.3375 38.321 42.1838C38.039 42.025 37.8203 41.8062 37.6675 41.5276C37.5121 41.2437 37.4357 40.9234 37.4357 40.5693C37.4357 40.189 37.5121 39.8505 37.6675 39.5588C37.8283 39.2672 38.039 39.0458 38.2999 38.8922C38.566 38.7333 38.8506 38.6526 39.1536 38.6526C39.4487 38.6526 39.7253 38.7307 39.9862 38.8818C40.2444 39.0354 40.4525 39.2437 40.608 39.5068C40.7687 39.7724 40.8504 40.0693 40.8504 40.4026ZM39.1536 39.2568C38.8927 39.2568 38.6688 39.3297 38.4791 39.4755C38.2893 39.6213 38.1629 39.8453 38.0996 40.1422H40.1548V40.0901C40.1337 39.8479 40.0204 39.65 39.8175 39.4963C39.6199 39.3375 39.3986 39.2568 39.1536 39.2568Z" fill="black"/>
<path d="M47.3272 38.6943C47.4246 38.6943 47.5063 38.7255 47.5696 38.788C47.6328 38.8453 47.6644 38.9234 47.6644 39.0276V42.0068C47.6644 42.1057 47.6328 42.1838 47.5696 42.2463C47.5063 42.3088 47.4246 42.3401 47.3272 42.3401C47.2349 42.3401 47.1585 42.3088 47.0953 42.2463C47.0321 42.1838 47.0004 42.1057 47.0004 42.0068V41.8297C46.8792 41.9911 46.7159 42.1292 46.5051 42.2463C46.2996 42.3557 46.0756 42.413 45.8306 42.413C45.5197 42.413 45.2351 42.3349 44.9769 42.1734C44.7161 42.0068 44.5132 41.7828 44.3656 41.4963C44.2234 41.2125 44.1548 40.8896 44.1548 40.5276C44.1548 40.1734 44.2234 39.8557 44.3656 39.5693C44.5132 39.2776 44.7134 39.0536 44.9664 38.8922C45.2246 38.7333 45.5065 38.6526 45.8095 38.6526C46.0545 38.6526 46.2838 38.7047 46.4946 38.8088C46.7106 38.9078 46.8792 39.0354 47.0004 39.1943V39.0276C47.0004 38.9312 47.0321 38.8505 47.0953 38.788C47.1585 38.7255 47.2349 38.6943 47.3272 38.6943ZM45.9149 41.8088C46.1309 41.8088 46.3259 41.7542 46.4946 41.6422C46.6632 41.5328 46.7923 41.3792 46.8845 41.1838C46.982 40.9911 47.0321 40.7724 47.0321 40.5276C47.0321 40.2932 46.982 40.0797 46.8845 39.8922C46.7923 39.6995 46.6632 39.5458 46.4946 39.4338C46.3259 39.3167 46.1309 39.2568 45.9149 39.2568C45.6962 39.2568 45.5039 39.314 45.3352 39.4234C45.1666 39.5354 45.0322 39.689 44.9347 39.8818C44.8346 40.0693 44.7872 40.2854 44.7872 40.5276C44.7872 40.7724 44.8346 40.9911 44.9347 41.1838C45.0322 41.3792 45.1666 41.5328 45.3352 41.6422C45.5039 41.7542 45.6962 41.8088 45.9149 41.8088Z" fill="black"/>
<path d="M50.05 39.3818V41.4234C50.05 41.6526 50.1502 41.7672 50.3557 41.7672C50.3899 41.7672 50.4347 41.762 50.4927 41.7463C50.548 41.7333 50.5902 41.7255 50.6191 41.7255C50.6824 41.7255 50.7351 41.7515 50.7772 41.7984C50.8194 41.8479 50.8405 41.9104 50.8405 41.9859C50.8405 42.0849 50.7825 42.1682 50.6718 42.2359C50.5585 42.3062 50.4321 42.3401 50.2924 42.3401C50.1449 42.3401 50.0026 42.3271 49.8709 42.2984C49.7444 42.2646 49.6311 42.1812 49.5336 42.0484C49.4335 41.9182 49.3861 41.7203 49.3861 41.4547V39.3818H48.9856C48.8934 39.3818 48.8196 39.3557 48.7642 39.2984C48.7063 39.2359 48.6799 39.1604 48.6799 39.0693C48.6799 38.9859 48.7063 38.9182 48.7642 38.8609C48.8196 38.8062 48.8934 38.7776 48.9856 38.7776H49.3861V38.2047C49.3861 38.1083 49.4177 38.0276 49.4809 37.9651C49.5441 37.9026 49.6232 37.8713 49.7233 37.8713C49.8129 37.8713 49.8919 37.9026 49.9552 37.9651C50.0184 38.0276 50.05 38.1083 50.05 38.2047V38.7776H50.6191C50.7087 38.7776 50.7825 38.8088 50.8405 38.8713C50.8958 38.9286 50.9248 38.9963 50.9248 39.0797C50.9248 39.1708 50.8958 39.2437 50.8405 39.2984C50.7825 39.3557 50.7087 39.3818 50.6191 39.3818H50.05Z" fill="black"/>
<path d="M57.167 38.7046C57.2645 38.7046 57.3462 38.7358 57.4094 38.7983C57.4727 38.8608 57.5043 38.9416 57.5043 39.0379V42.0067C57.5043 42.5744 57.3409 43.0015 57.0195 43.2879C56.7033 43.5718 56.2817 43.715 55.7548 43.715C55.5861 43.715 55.4175 43.6968 55.2489 43.6629C55.0802 43.6343 54.9432 43.5926 54.8378 43.5379C54.6692 43.4598 54.5849 43.353 54.5849 43.215C54.5849 43.1942 54.5875 43.1655 54.5954 43.1317C54.6218 43.0535 54.6613 42.9963 54.7114 42.9546C54.7667 42.9129 54.8273 42.8921 54.8905 42.8921C54.9248 42.8921 54.959 42.8973 54.9959 42.9129C55.1356 42.9754 55.2621 43.0223 55.3753 43.0588C55.486 43.1004 55.6177 43.1213 55.7653 43.1213C56.482 43.1213 56.8403 42.7567 56.8403 42.0275V41.8817C56.7138 42.0483 56.5505 42.1812 56.3555 42.2775C56.1579 42.366 55.9339 42.4129 55.681 42.4129C55.2937 42.4129 54.9907 42.2931 54.7746 42.0483C54.5638 41.8062 54.4584 41.4858 54.4584 41.09V39.0379C54.4584 38.9416 54.4848 38.8608 54.5427 38.7983C54.606 38.7358 54.685 38.7046 54.7852 38.7046C54.8826 38.7046 54.9643 38.7358 55.0276 38.7983C55.0908 38.8608 55.1224 38.9416 55.1224 39.0379V40.9129C55.1224 41.2202 55.1883 41.4442 55.3227 41.59C55.4544 41.7358 55.6599 41.8088 55.9339 41.8088C56.1921 41.8088 56.4082 41.7254 56.5768 41.5588C56.7507 41.3921 56.8403 41.1785 56.8403 40.9129V39.0379C56.8403 38.9416 56.8666 38.8608 56.9246 38.7983C56.9878 38.7358 57.0669 38.7046 57.167 38.7046Z" fill="black"/>
<path d="M62.3448 40.538C62.3448 40.9 62.2631 41.2229 62.1024 41.5068C61.939 41.7854 61.7177 42.0068 61.4384 42.1734C61.1565 42.3349 60.8482 42.413 60.5109 42.413C60.1737 42.413 59.8628 42.3349 59.5835 42.1734C59.3016 42.0068 59.0802 41.7854 58.9195 41.5068C58.7562 41.2229 58.6771 40.9 58.6771 40.538C58.6771 40.1838 58.7562 39.8609 58.9195 39.5693C59.0802 39.2776 59.3016 39.0536 59.5835 38.8922C59.8628 38.7333 60.1737 38.6526 60.5109 38.6526C60.8482 38.6526 61.1565 38.7333 61.4384 38.8922C61.7177 39.0536 61.939 39.2776 62.1024 39.5693C62.2631 39.8609 62.3448 40.1838 62.3448 40.538ZM61.6913 40.538C61.6913 40.288 61.6386 40.0667 61.5333 39.8713C61.4279 39.6786 61.2829 39.5276 61.1011 39.4234C60.9246 39.314 60.727 39.2568 60.5109 39.2568C60.2923 39.2568 60.092 39.314 59.9102 39.4234C59.7337 39.5276 59.594 39.6786 59.4886 39.8713C59.3833 40.0667 59.3306 40.288 59.3306 40.538C59.3306 40.7828 59.3833 41.0015 59.4886 41.1943C59.594 41.3818 59.7337 41.5328 59.9102 41.6422C60.092 41.7542 60.2923 41.8088 60.5109 41.8088C60.727 41.8088 60.9246 41.7542 61.1011 41.6422C61.2829 41.5328 61.4279 41.3818 61.5333 41.1943C61.6386 41.0015 61.6913 40.7828 61.6913 40.538Z" fill="black"/>
<path d="M66.2346 38.7358C66.3321 38.7358 66.4138 38.7723 66.477 38.84C66.5403 38.9025 66.5719 38.9806 66.5719 39.0692V40.8921C66.5719 41.3713 66.4375 41.7437 66.1714 42.0067C65.9027 42.2723 65.5285 42.4025 65.0437 42.4025C64.5589 42.4025 64.1821 42.2723 63.916 42.0067C63.6552 41.7437 63.5261 41.3713 63.5261 40.8921V39.0692C63.5261 38.9806 63.5577 38.9025 63.6209 38.84C63.6842 38.7723 63.7606 38.7358 63.8528 38.7358C63.9503 38.7358 64.0319 38.7723 64.0952 38.84C64.1584 38.9025 64.19 38.9806 64.19 39.0692V40.8921C64.19 41.4963 64.4746 41.7983 65.0437 41.7983C65.323 41.7983 65.5391 41.7228 65.6866 41.5692C65.8342 41.4181 65.9079 41.1916 65.9079 40.8921V39.0692C65.9079 38.9806 65.9395 38.9025 66.0028 38.84C66.066 38.7723 66.1424 38.7358 66.2346 38.7358Z" fill="black"/>
<path d="M69.7858 38.6526C69.9043 38.6526 70.0071 38.6838 70.0914 38.7463C70.181 38.8088 70.2284 38.887 70.2284 38.9755C70.2284 39.0875 70.1994 39.1734 70.1441 39.2359C70.0861 39.2932 70.0176 39.3193 69.9333 39.3193C69.8912 39.3193 69.8279 39.3062 69.7436 39.2776C69.6435 39.2437 69.5671 39.2255 69.5117 39.2255C69.3695 39.2255 69.2298 39.275 69.0902 39.3713C68.9558 39.4703 68.8478 39.6057 68.7635 39.7776C68.6791 39.9521 68.637 40.1422 68.637 40.3505V42.0068C68.637 42.1057 68.6054 42.1838 68.5421 42.2463C68.4789 42.3088 68.3972 42.3401 68.2997 42.3401C68.1996 42.3401 68.1206 42.3088 68.0573 42.2463C67.9994 42.1838 67.973 42.1057 67.973 42.0068V39.0693C67.973 38.9807 68.0046 38.9026 68.0679 38.8401C68.1311 38.7724 68.2075 38.7359 68.2997 38.7359C68.3972 38.7359 68.4789 38.7724 68.5421 38.8401C68.6054 38.9026 68.637 38.9807 68.637 39.0693V39.413C68.7345 39.1917 68.8847 39.012 69.0902 38.8713C69.2931 38.7333 69.5249 38.6604 69.7858 38.6526Z" fill="black"/>
<path d="M75.1612 37.84C75.0057 37.84 74.8898 37.8895 74.8134 37.9858C74.7422 38.077 74.708 38.189 74.708 38.3192V38.7983H75.4036C75.4932 38.7983 75.5669 38.8296 75.6249 38.8921C75.6881 38.9494 75.7198 39.0171 75.7198 39.1004C75.7198 39.1916 75.6881 39.2645 75.6249 39.3192C75.5669 39.3765 75.4932 39.4025 75.4036 39.4025H74.708V42.0067C74.708 42.1056 74.6764 42.1838 74.6131 42.2463C74.5552 42.3088 74.4788 42.34 74.3813 42.34C74.2891 42.34 74.2126 42.3088 74.1494 42.2463C74.0862 42.1838 74.0546 42.1056 74.0546 42.0067V39.4025H73.6225C73.5302 39.4025 73.4538 39.3765 73.3906 39.3192C73.3326 39.2645 73.3063 39.1916 73.3063 39.1004C73.3063 39.0171 73.3326 38.9494 73.3906 38.8921C73.4538 38.8296 73.5302 38.7983 73.6225 38.7983H74.0546V38.3192C74.0546 38.0015 74.1547 37.7463 74.3602 37.5588C74.571 37.366 74.8661 37.2671 75.2455 37.2671C75.4062 37.2671 75.5459 37.2957 75.6671 37.3504C75.7856 37.4077 75.8462 37.4937 75.8462 37.6108C75.8462 37.6942 75.8172 37.7671 75.7619 37.8296C75.7119 37.8869 75.6486 37.9129 75.5722 37.9129C75.5564 37.9129 75.509 37.9025 75.4247 37.8817C75.3193 37.8556 75.2297 37.84 75.1612 37.84Z" fill="black"/>
<path d="M77.35 42.0067C77.35 42.1057 77.3184 42.1838 77.2552 42.2463C77.192 42.3088 77.1129 42.34 77.0233 42.34C76.9232 42.34 76.8442 42.3088 76.7809 42.2463C76.723 42.1838 76.6966 42.1057 76.6966 42.0067V39.038C76.6966 38.9416 76.723 38.8609 76.7809 38.7984C76.8442 38.7359 76.9232 38.7046 77.0233 38.7046C77.1129 38.7046 77.192 38.7359 77.2552 38.7984C77.3184 38.8609 77.35 38.9416 77.35 39.038V42.0067ZM77.0128 38.2463C76.8784 38.2463 76.7836 38.2229 76.7282 38.1734C76.6703 38.1265 76.6439 38.0484 76.6439 37.9442V37.84C76.6439 37.7307 76.6755 37.6525 76.7388 37.6109C76.802 37.564 76.8969 37.538 77.0233 37.538C77.1498 37.538 77.2394 37.564 77.2974 37.6109C77.3606 37.6604 77.3922 37.7359 77.3922 37.84V37.9442C77.3922 38.0562 77.3606 38.1369 77.2974 38.1838C77.2394 38.2255 77.1445 38.2463 77.0128 38.2463Z" fill="black"/>
<path d="M80.5774 38.6526C81.4127 38.6526 81.8316 39.15 81.8316 40.1422V42.0068C81.8316 42.1057 81.8 42.1838 81.7367 42.2463C81.6735 42.3088 81.5918 42.3401 81.4943 42.3401C81.4021 42.3401 81.3257 42.3088 81.2625 42.2463C81.1992 42.1838 81.1676 42.1057 81.1676 42.0068V40.1422C81.1676 39.8792 81.1044 39.6682 80.9779 39.5068C80.8567 39.3401 80.6538 39.2568 80.3667 39.2568C80.1822 39.2568 80.0136 39.2984 79.8608 39.3818C79.7132 39.4599 79.5973 39.5667 79.513 39.7047C79.4287 39.8375 79.3865 39.9833 79.3865 40.1422V42.0068C79.3865 42.1057 79.3549 42.1838 79.2917 42.2463C79.2284 42.3088 79.1467 42.3401 79.0492 42.3401C78.9491 42.3401 78.8701 42.3088 78.8068 42.2463C78.7489 42.1838 78.7225 42.1057 78.7225 42.0068V39.0693C78.7225 38.9807 78.7542 38.9026 78.8174 38.8401C78.8806 38.7724 78.957 38.7359 79.0492 38.7359C79.1467 38.7359 79.2284 38.7724 79.2917 38.8401C79.3549 38.9026 79.3865 38.9807 79.3865 39.0693V39.3088C79.5051 39.1292 79.6711 38.9755 79.8818 38.8505C80.0979 38.7203 80.3298 38.6526 80.5774 38.6526Z" fill="black"/>
<path d="M86.2778 38.6943C86.3753 38.6943 86.457 38.7255 86.5202 38.788C86.5835 38.8453 86.6151 38.9234 86.6151 39.0276V42.0484C86.6151 42.4234 86.5334 42.7359 86.3727 42.9859C86.2093 43.2359 85.9933 43.4182 85.7193 43.538C85.4452 43.6552 85.1343 43.7151 84.7918 43.7151C84.6074 43.7151 84.3913 43.6838 84.1384 43.6213C83.8907 43.5588 83.7326 43.4911 83.6641 43.4234C83.5218 43.3453 83.4533 43.2515 83.4533 43.1422C83.4533 43.1135 83.4639 43.0797 83.4849 43.038C83.5324 42.9182 83.6167 42.8609 83.7379 42.8609C83.8011 42.8609 83.867 42.8739 83.9381 42.9026C84.3017 43.0484 84.5916 43.1213 84.8023 43.1213C85.1739 43.1213 85.4584 43.0302 85.656 42.8505C85.851 42.676 85.9511 42.4364 85.9511 42.1318V41.7568C85.851 41.939 85.6876 42.0953 85.4558 42.2255C85.2292 42.3505 84.9868 42.413 84.7286 42.413C84.4124 42.413 84.1199 42.3349 83.8538 42.1734C83.593 42.0068 83.3848 41.7828 83.232 41.4963C83.0845 41.2125 83.0107 40.8896 83.0107 40.5276C83.0107 40.1734 83.0845 39.8557 83.232 39.5693C83.3848 39.2776 83.593 39.0536 83.8538 38.8922C84.112 38.7333 84.4019 38.6526 84.718 38.6526C84.971 38.6526 85.2055 38.7125 85.4242 38.8297C85.6481 38.9417 85.8247 39.0797 85.9511 39.2463V39.0276C85.9511 38.9312 85.9775 38.8505 86.0354 38.788C86.0987 38.7255 86.1777 38.6943 86.2778 38.6943ZM84.8129 41.8088C85.0368 41.8088 85.2371 41.7542 85.4136 41.6422C85.5875 41.5328 85.7245 41.3792 85.8247 41.1838C85.93 40.9911 85.9827 40.7724 85.9827 40.5276C85.9827 40.2854 85.93 40.0693 85.8247 39.8818C85.7245 39.689 85.5875 39.5354 85.4136 39.4234C85.2371 39.314 85.0368 39.2568 84.8129 39.2568C84.5863 39.2568 84.386 39.314 84.2122 39.4234C84.0356 39.5354 83.896 39.689 83.7906 39.8818C83.6905 40.0771 83.643 40.2932 83.643 40.5276C83.643 40.7724 83.6905 40.9911 83.7906 41.1838C83.896 41.3792 84.0356 41.5328 84.2122 41.6422C84.386 41.7542 84.5863 41.8088 84.8129 41.8088Z" fill="black"/>
<path d="M91.1989 40.4026C91.1989 40.4859 91.162 40.5562 91.0935 40.6109C91.0303 40.6682 90.9565 40.6943 90.8722 40.6943H88.4165C88.4508 41.0276 88.5799 41.2984 88.8065 41.5068C89.0304 41.7099 89.3045 41.8088 89.6285 41.8088C89.8525 41.8088 90.0343 41.7776 90.1766 41.7151C90.3162 41.6474 90.4401 41.564 90.5455 41.4651C90.614 41.4234 90.6825 41.4026 90.7457 41.4026C90.8221 41.4026 90.8853 41.4312 90.9354 41.4859C90.9907 41.5354 91.0197 41.5979 91.0197 41.6734C91.0197 41.7724 90.9723 41.8583 90.8827 41.9338C90.7483 42.0667 90.5692 42.1812 90.3452 42.2776C90.1265 42.3661 89.9026 42.413 89.6707 42.413C89.2913 42.413 88.9567 42.3375 88.6695 42.1838C88.3875 42.025 88.1689 41.8062 88.016 41.5276C87.8606 41.2437 87.7842 40.9234 87.7842 40.5693C87.7842 40.189 87.8606 39.8505 88.016 39.5588C88.1768 39.2672 88.3875 39.0458 88.6484 38.8922C88.9145 38.7333 89.1991 38.6526 89.5021 38.6526C89.7972 38.6526 90.0738 38.7307 90.3347 38.8818C90.5929 39.0354 90.801 39.2437 90.9565 39.5068C91.1172 39.7724 91.1989 40.0693 91.1989 40.4026ZM89.5021 39.2568C89.2412 39.2568 89.0173 39.3297 88.8276 39.4755C88.6379 39.6213 88.5114 39.8453 88.4482 40.1422H90.5033V40.0901C90.4822 39.8479 90.3689 39.65 90.166 39.4963C89.9684 39.3375 89.7471 39.2568 89.5021 39.2568Z" fill="black"/>
<path d="M94.1957 38.6526C94.3143 38.6526 94.4171 38.6838 94.5014 38.7463C94.591 38.8088 94.6384 38.887 94.6384 38.9755C94.6384 39.0875 94.6094 39.1734 94.5541 39.2359C94.4961 39.2932 94.4276 39.3193 94.3433 39.3193C94.3011 39.3193 94.2379 39.3062 94.1536 39.2776C94.0535 39.2437 93.9771 39.2255 93.9217 39.2255C93.7794 39.2255 93.6398 39.275 93.5002 39.3713C93.3658 39.4703 93.2578 39.6057 93.1734 39.7776C93.0891 39.9521 93.047 40.1422 93.047 40.3505V42.0068C93.047 42.1057 93.0153 42.1838 92.9521 42.2463C92.8889 42.3088 92.8072 42.3401 92.7097 42.3401C92.6096 42.3401 92.5305 42.3088 92.4673 42.2463C92.4093 42.1838 92.383 42.1057 92.383 42.0068V39.0693C92.383 38.9807 92.4146 38.9026 92.4778 38.8401C92.5411 38.7724 92.6175 38.7359 92.7097 38.7359C92.8072 38.7359 92.8889 38.7724 92.9521 38.8401C93.0153 38.9026 93.047 38.9807 93.047 39.0693V39.413C93.1445 39.1917 93.2946 39.012 93.5002 38.8713C93.703 38.7333 93.9349 38.6604 94.1957 38.6526Z" fill="black"/>
<path d="M96.6603 39.3818V41.4234C96.6603 41.6526 96.7604 41.7672 96.966 41.7672C97.0002 41.7672 97.045 41.762 97.103 41.7463C97.1583 41.7333 97.2005 41.7255 97.2294 41.7255C97.2927 41.7255 97.3454 41.7515 97.3875 41.7984C97.4297 41.8479 97.4508 41.9104 97.4508 41.9859C97.4508 42.0849 97.3928 42.1682 97.2821 42.2359C97.1688 42.3062 97.0424 42.3401 96.9027 42.3401C96.7552 42.3401 96.6129 42.3271 96.4812 42.2984C96.3547 42.2646 96.2414 42.1812 96.1439 42.0484C96.0438 41.9182 95.9963 41.7203 95.9963 41.4547V39.3818H95.5959C95.5036 39.3818 95.4299 39.3557 95.3745 39.2984C95.3166 39.2359 95.2902 39.1604 95.2902 39.0693C95.2902 38.9859 95.3166 38.9182 95.3745 38.8609C95.4299 38.8062 95.5036 38.7776 95.5959 38.7776H95.9963V38.2047C95.9963 38.1083 96.028 38.0276 96.0912 37.9651C96.1544 37.9026 96.2335 37.8713 96.3336 37.8713C96.4232 37.8713 96.5022 37.9026 96.5655 37.9651C96.6287 38.0276 96.6603 38.1083 96.6603 38.2047V38.7776H97.2294C97.319 38.7776 97.3928 38.8088 97.4508 38.8713C97.5061 38.9286 97.5351 38.9963 97.5351 39.0797C97.5351 39.1708 97.5061 39.2437 97.4508 39.2984C97.3928 39.3557 97.319 39.3818 97.2294 39.3818H96.6603Z" fill="black"/>
<path d="M99.3488 42.0067C99.3488 42.1057 99.3172 42.1838 99.254 42.2463C99.1907 42.3088 99.1117 42.34 99.0221 42.34C98.922 42.34 98.8429 42.3088 98.7797 42.2463C98.7217 42.1838 98.6954 42.1057 98.6954 42.0067V39.038C98.6954 38.9416 98.7217 38.8609 98.7797 38.7984C98.8429 38.7359 98.922 38.7046 99.0221 38.7046C99.1117 38.7046 99.1907 38.7359 99.254 38.7984C99.3172 38.8609 99.3488 38.9416 99.3488 39.038V42.0067ZM99.0116 38.2463C98.8772 38.2463 98.7823 38.2229 98.727 38.1734C98.669 38.1265 98.6427 38.0484 98.6427 37.9442V37.84C98.6427 37.7307 98.6743 37.6525 98.7376 37.6109C98.8008 37.564 98.8956 37.538 99.0221 37.538C99.1486 37.538 99.2382 37.564 99.2961 37.6109C99.3594 37.6604 99.391 37.7359 99.391 37.84V37.9442C99.391 38.0562 99.3594 38.1369 99.2961 38.1838C99.2382 38.2255 99.1433 38.2463 99.0116 38.2463Z" fill="black"/>
<path d="M102.545 38.6733C102.861 38.6733 103.145 38.7541 103.398 38.9129C103.656 39.0744 103.862 39.2957 104.01 39.5796C104.157 39.866 104.231 40.1838 104.231 40.5379C104.231 40.8999 104.157 41.2228 104.01 41.5067C103.862 41.7853 103.656 42.0041 103.398 42.1629C103.145 42.3244 102.866 42.4025 102.566 42.4025C102.318 42.4025 102.091 42.3504 101.881 42.2463C101.675 42.1421 101.512 42.0145 101.385 41.8608V43.3817C101.385 43.478 101.354 43.5588 101.29 43.6213C101.227 43.6838 101.146 43.715 101.048 43.715C100.956 43.715 100.879 43.6838 100.816 43.6213C100.753 43.5588 100.721 43.478 100.721 43.3817V39.0588C100.721 38.9624 100.748 38.8817 100.806 38.8192C100.869 38.7567 100.948 38.7254 101.048 38.7254C101.146 38.7254 101.227 38.7567 101.29 38.8192C101.354 38.8817 101.385 38.9624 101.385 39.0588V39.2567C101.491 39.0978 101.649 38.9624 101.86 38.8504C102.076 38.7332 102.305 38.6733 102.545 38.6733ZM102.471 41.7983C102.687 41.7983 102.882 41.7437 103.05 41.6317C103.219 41.5223 103.348 41.3713 103.44 41.1838C103.538 40.991 103.588 40.7749 103.588 40.5379C103.588 40.3035 103.538 40.09 103.44 39.9025C103.348 39.7098 103.219 39.5562 103.05 39.4442C102.882 39.3348 102.687 39.2775 102.471 39.2775C102.252 39.2775 102.055 39.3348 101.881 39.4442C101.712 39.5483 101.578 39.6994 101.48 39.8921C101.388 40.0874 101.343 40.3035 101.343 40.5379C101.343 40.7749 101.388 40.991 101.48 41.1838C101.578 41.3791 101.712 41.5327 101.881 41.6421C102.055 41.7463 102.252 41.7983 102.471 41.7983Z" fill="black"/>
<path d="M105.194 41.7776C105.152 41.7151 105.13 41.6526 105.13 41.5901C105.13 41.5015 105.178 41.4234 105.278 41.3609C105.325 41.3271 105.378 41.3088 105.436 41.3088C105.52 41.3088 105.597 41.3453 105.668 41.413C105.808 41.5667 105.955 41.6838 106.111 41.7672C106.271 41.8453 106.464 41.8818 106.69 41.8818C106.864 41.8765 107.02 41.8349 107.154 41.7568C107.286 41.6812 107.354 41.5588 107.354 41.3922C107.354 41.2333 107.283 41.1161 107.143 41.038C107.009 40.9547 106.811 40.8792 106.553 40.8088C106.292 40.7411 106.074 40.6682 105.9 40.5901C105.731 40.5146 105.586 40.4078 105.468 40.2672C105.347 40.1213 105.289 39.9312 105.289 39.6943C105.289 39.4859 105.347 39.3062 105.468 39.1526C105.586 38.9937 105.744 38.8713 105.942 38.788C106.137 38.6995 106.353 38.6526 106.585 38.6526C106.809 38.6526 107.03 38.6943 107.249 38.7776C107.465 38.8609 107.644 38.9859 107.786 39.1526C107.842 39.2229 107.871 39.2932 107.871 39.3609C107.871 39.4312 107.834 39.5015 107.765 39.5693C107.715 39.6109 107.655 39.6318 107.586 39.6318C107.502 39.6318 107.433 39.6057 107.386 39.5484C107.286 39.439 107.167 39.3557 107.028 39.2984C106.885 39.2359 106.727 39.2047 106.553 39.2047C106.377 39.2047 106.227 39.2411 106.1 39.3088C105.979 39.3792 105.921 39.5015 105.921 39.6734C105.926 39.8349 105.997 39.9521 106.132 40.0276C106.271 40.1057 106.482 40.1812 106.764 40.2568C107.009 40.3193 107.212 40.3896 107.375 40.4651C107.536 40.5354 107.673 40.6422 107.786 40.788C107.897 40.9338 107.955 41.1265 107.955 41.3609C107.955 41.5771 107.892 41.7646 107.765 41.9234C107.639 42.0771 107.473 42.1995 107.27 42.288C107.072 42.3713 106.862 42.413 106.638 42.413C106.343 42.413 106.068 42.3635 105.816 42.2672C105.568 42.163 105.362 42.0015 105.194 41.7776Z" fill="black"/>
<mask id="mask0_109_519" style="mask-type:luminance" maskUnits="userSpaceOnUse" x="57" y="15" width="8" height="22">
<path d="M57.1647 15.5H64.5843V36.8333H57.1647V15.5Z" fill="white"/>
</mask>
<g mask="url(#mask0_109_519)">
<mask id="mask1_109_519" style="mask-type:luminance" maskUnits="userSpaceOnUse" x="53" y="15" width="17" height="22">
<path d="M53.9739 19.0365L63.0666 15.9609L69.1267 33.4661L60.0314 36.5417L53.9739 19.0365Z" fill="white"/>
</mask>
<g mask="url(#mask1_109_519)">
<mask id="mask2_109_519" style="mask-type:luminance" maskUnits="userSpaceOnUse" x="53" y="15" width="17" height="22">
<path d="M53.9739 19.0365L63.0666 15.9609L69.1267 33.4661L60.0314 36.5417L53.9739 19.0365Z" fill="white"/>
</mask>
<g mask="url(#mask2_109_519)">
<path d="M58.4294 17.5313L62.9613 15.9974L61.4489 23.2318L64.1074 22.3334L60.0156 36.487L60.5425 26.4037L57.6996 27.5235L58.4294 17.5313Z" fill="white"/>
</g>
</g>
</g>
<mask id="mask3_109_519" style="mask-type:luminance" maskUnits="userSpaceOnUse" x="57" y="16" width="5" height="21">
<path d="M57.1647 16.8334H61.2117V36.8334H57.1647V16.8334Z" fill="white"/>
</mask>
<g mask="url(#mask3_109_519)">
<mask id="mask4_109_519" style="mask-type:luminance" maskUnits="userSpaceOnUse" x="53" y="15" width="17" height="22">
<path d="M53.9739 19.0365L63.0666 15.9609L69.1267 33.4661L60.0314 36.5417L53.9739 19.0365Z" fill="white"/>
</mask>
<g mask="url(#mask4_109_519)">
<mask id="mask5_109_519" style="mask-type:luminance" maskUnits="userSpaceOnUse" x="53" y="15" width="17" height="22">
<path d="M53.9739 19.0365L63.0666 15.9609L69.1267 33.4661L60.0314 36.5417L53.9739 19.0365Z" fill="white"/>
</mask>
<g mask="url(#mask5_109_519)">
<path d="M58.4294 17.5312L59.212 17.2656L57.6996 27.5234L58.4294 17.5312ZM60.0156 36.487L61.0879 26.2188L60.5425 26.4036L60.0156 36.487Z" fill="black"/>
</g>
</g>
</g>
</svg>
