<svg width="172" height="52" viewBox="0 0 172 52" fill="none" xmlns="http://www.w3.org/2000/svg">
<path d="M16.6142 22.9225C15.4601 22.9225 14.4694 23.3444 13.6421 24.1829C12.8121 25.0241 12.3985 26.0371 12.3985 27.2246C12.3985 28.4277 12.8121 29.4512 13.6421 30.2975C14.4694 31.1387 15.4601 31.5579 16.6142 31.5579C17.1675 31.5579 17.6918 31.4928 18.1845 31.36C18.6825 31.222 19.0487 31.084 19.2806 30.9434L19.5862 30.735L21.6624 34.9329C21.4991 35.0527 21.2751 35.1986 20.9879 35.3704C20.6981 35.5371 20.042 35.7663 19.0171 36.0579C17.9895 36.3548 16.8908 36.5059 15.7183 36.5059C13.1178 36.5059 10.8308 35.6048 8.85729 33.7975C6.88909 31.985 5.90631 29.8158 5.90631 27.2871C5.90631 24.7402 6.88909 22.5527 8.85729 20.7246C10.8308 18.8913 13.1178 17.9746 15.7183 17.9746C16.8908 17.9746 17.9737 18.11 18.9644 18.3809C19.9551 18.6517 20.6559 18.9277 21.0722 19.2038L21.6624 19.61L19.5862 23.7454C18.8274 23.1986 17.8367 22.9225 16.6142 22.9225Z" fill="white"/>
<path d="M26.6662 18.4854V26.8083C26.6662 28.5452 26.9297 29.777 27.4567 30.5062C27.9889 31.2301 28.89 31.5895 30.1547 31.5895C31.4194 31.5895 32.3152 31.2301 32.8422 30.5062C33.3744 29.777 33.6432 28.5452 33.6432 26.8083V18.4854H39.7559V28.277C39.7559 31.1937 38.9892 33.2952 37.4584 34.5791C35.9249 35.8656 33.4904 36.5062 30.1547 36.5062C26.8164 36.5062 24.3818 35.8656 22.851 34.5791C21.3176 33.2952 20.5535 31.1937 20.5535 28.277V18.4854H26.6662Z" fill="white"/>
<path d="M58.2253 28.0788H45.378C45.378 29.3079 45.7812 30.2194 46.59 30.8079C47.3963 31.3991 48.2711 31.6934 49.2143 31.6934C50.205 31.6934 50.9875 31.5658 51.5646 31.3079C52.1389 31.0449 52.7976 30.5241 53.5354 29.7454L57.9513 31.9329C56.1096 34.9824 53.0453 36.5059 48.7611 36.5059C46.0894 36.5059 43.7998 35.6048 41.8896 33.7975C39.9767 31.985 39.0229 29.8053 39.0229 27.2559C39.0229 24.709 39.9767 22.5241 41.8896 20.7038C43.7998 18.8861 46.0894 17.9746 48.7611 17.9746C51.5698 17.9746 53.8568 18.7767 55.6222 20.3809C57.3848 21.985 58.2675 24.2767 58.2675 27.2559C58.2675 27.6673 58.2517 27.9408 58.2253 28.0788ZM45.5572 24.735H52.2918C52.1495 23.8262 51.7859 23.1283 51.1957 22.6413C50.6108 22.1491 49.8598 21.9017 48.9403 21.9017C47.9285 21.9017 47.1196 22.1621 46.5163 22.6829C45.9182 23.2038 45.5994 23.8887 45.5572 24.735Z" fill="white"/>
<path d="M78.1263 18.4854L69.6949 26.8499L78.9589 35.9958H71.0756L64.0037 28.9958V35.9958H57.891V6.6416H64.0037V24.5895L70.1797 18.4854H78.1263Z" fill="#545454"/>
<path d="M94.8697 28.0788H82.0224C82.0224 29.3079 82.4255 30.2194 83.2344 30.8079C84.0406 31.3991 84.9154 31.6934 85.8587 31.6934C86.8493 31.6934 87.6319 31.5658 88.2089 31.3079C88.7833 31.0449 89.442 30.5241 90.1797 29.7454L94.5957 31.9329C92.7539 34.9824 89.6897 36.5059 85.4055 36.5059C82.7338 36.5059 80.4441 35.6048 78.5339 33.7975C76.621 31.985 75.6672 29.8053 75.6672 27.2559C75.6672 24.709 76.621 22.5241 78.5339 20.7038C80.4441 18.8861 82.7338 17.9746 85.4055 17.9746C88.2142 17.9746 90.5012 18.7767 92.2665 20.3809C94.0292 21.985 94.9118 24.2767 94.9118 27.2559C94.9118 27.6673 94.896 27.9408 94.8697 28.0788ZM82.2016 24.735H88.9361C88.7938 23.8262 88.4302 23.1283 87.84 22.6413C87.2551 22.1491 86.5042 21.9017 85.5846 21.9017C84.5729 21.9017 83.764 22.1621 83.1606 22.6829C82.5625 23.2038 82.2437 23.8887 82.2016 24.735Z" fill="#545454"/>
<path d="M112.447 28.0788H99.5994C99.5994 29.3079 100.003 30.2194 100.811 30.8079C101.618 31.3991 102.492 31.6934 103.436 31.6934C104.426 31.6934 105.209 31.5658 105.786 31.3079C106.36 31.0449 107.019 30.5241 107.757 29.7454L112.173 31.9329C110.331 34.9824 107.267 36.5059 102.982 36.5059C100.311 36.5059 98.0212 35.6048 96.1109 33.7975C94.1981 31.985 93.2443 29.8053 93.2443 27.2559C93.2443 24.709 94.1981 22.5241 96.1109 20.7038C98.0212 18.8861 100.311 17.9746 102.982 17.9746C105.791 17.9746 108.078 18.7767 109.844 20.3809C111.606 21.985 112.489 24.2767 112.489 27.2559C112.489 27.6673 112.473 27.9408 112.447 28.0788ZM99.7786 24.735H106.513C106.371 23.8262 106.007 23.1283 105.417 22.6413C104.832 22.1491 104.081 21.9017 103.162 21.9017C102.15 21.9017 101.341 22.1621 100.738 22.6829C100.14 23.2038 99.8207 23.8887 99.7786 24.735Z" fill="#545454"/>
<path d="M130.34 20.6517C131.997 22.4382 132.827 24.6283 132.827 27.2246C132.827 29.8158 131.997 32.0111 130.34 33.8079C128.68 35.6074 126.572 36.5059 124.016 36.5059C121.669 36.5059 119.738 35.7767 118.22 34.3184V44.8704H112.107V18.485H118.146V20.4642H118.22C119.738 18.8053 121.669 17.9746 124.016 17.9746C126.572 17.9746 128.68 18.8678 130.34 20.6517ZM125.144 30.1934C125.937 29.4173 126.335 28.4277 126.335 27.2246C126.335 26.0163 125.95 25.0345 125.186 24.2767C124.427 23.5137 123.429 23.1309 122.193 23.1309C120.992 23.1309 120.004 23.5163 119.232 24.2871C118.465 25.0579 118.083 26.0371 118.083 27.2246C118.083 28.4277 118.478 29.4173 119.274 30.1934C120.067 30.9642 121.039 31.3496 122.193 31.3496C123.366 31.3496 124.348 30.9642 125.144 30.1934Z" fill="#545454"/>
<path d="M150.364 28.0788H137.516C137.516 29.3079 137.919 30.2194 138.728 30.8079C139.535 31.3991 140.409 31.6934 141.353 31.6934C142.343 31.6934 143.126 31.5658 143.703 31.3079C144.277 31.0449 144.936 30.5241 145.674 29.7454L150.09 31.9329C148.248 34.9824 145.184 36.5059 140.899 36.5059C138.228 36.5059 135.938 35.6048 134.028 33.7975C132.115 31.985 131.161 29.8053 131.161 27.2559C131.161 24.709 132.115 22.5241 134.028 20.7038C135.938 18.8861 138.228 17.9746 140.899 17.9746C143.708 17.9746 145.995 18.7767 147.76 20.3809C149.523 21.985 150.406 24.2767 150.406 27.2559C150.406 27.6673 150.39 27.9408 150.364 28.0788ZM137.695 24.735H144.43C144.288 23.8262 143.924 23.1283 143.334 22.6413C142.749 22.1491 141.998 21.9017 141.079 21.9017C140.067 21.9017 139.258 22.1621 138.655 22.6829C138.056 23.2038 137.738 23.8887 137.695 24.735Z" fill="#545454"/>
<path d="M150.024 35.9954V18.485H156.137V21.0059H156.2C156.247 20.9173 156.321 20.8053 156.421 20.6725C156.527 20.5345 156.751 20.2949 157.096 19.9538C157.446 19.6152 157.815 19.3079 158.202 19.0371C158.595 18.7611 159.101 18.5137 159.72 18.2975C160.345 18.084 160.98 17.9746 161.628 17.9746C162.294 17.9746 162.948 18.0658 163.588 18.2454C164.233 18.4277 164.708 18.6074 165.011 18.7871L165.496 19.0684L162.935 24.1829C162.176 23.5449 161.117 23.2246 159.762 23.2246C159.024 23.2246 158.387 23.3861 157.855 23.7038C157.328 24.0241 156.954 24.4121 156.737 24.8704C156.519 25.3236 156.363 25.709 156.274 26.0267C156.182 26.347 156.137 26.597 156.137 26.7767V35.9954H150.024Z" fill="#545454"/>
<path d="M16.3963 38.6733C17.2026 38.6733 17.6084 39.1733 17.6084 40.1733V42.0067C17.6084 42.1056 17.5767 42.1838 17.5135 42.2463C17.4555 42.3088 17.3791 42.34 17.2816 42.34C17.1815 42.34 17.1025 42.3088 17.0392 42.2463C16.976 42.1838 16.9444 42.1056 16.9444 42.0067V40.1838C16.9444 39.5796 16.6914 39.2775 16.1856 39.2775C16.0011 39.2775 15.8378 39.3192 15.6902 39.4025C15.5427 39.4806 15.4267 39.5874 15.3424 39.7254C15.2634 39.866 15.2265 40.0171 15.2265 40.1838V42.0067C15.2265 42.1056 15.1949 42.1838 15.1316 42.2463C15.0684 42.3088 14.9894 42.34 14.8998 42.34C14.7997 42.34 14.7206 42.3088 14.6574 42.2463C14.5994 42.1838 14.5731 42.1056 14.5731 42.0067V40.1733C14.5731 39.9025 14.5125 39.689 14.3939 39.5275C14.2806 39.3608 14.0883 39.2775 13.8142 39.2775C13.5402 39.2775 13.3136 39.366 13.1397 39.5379C12.9632 39.7124 12.8763 39.9233 12.8763 40.1733V42.0067C12.8763 42.1056 12.8446 42.1838 12.7814 42.2463C12.7182 42.3088 12.6365 42.34 12.539 42.34C12.4389 42.34 12.3598 42.3088 12.2966 42.2463C12.2386 42.1838 12.2123 42.1056 12.2123 42.0067V39.0692C12.2123 38.9806 12.2439 38.9025 12.3071 38.84C12.3704 38.7723 12.4468 38.7358 12.539 38.7358C12.6365 38.7358 12.7182 38.7723 12.7814 38.84C12.8446 38.9025 12.8763 38.9806 12.8763 39.0692V39.3088C12.9948 39.1291 13.1529 38.9806 13.3505 38.8608C13.5534 38.7358 13.7747 38.6733 14.0145 38.6733C14.5889 38.6733 14.963 38.9285 15.1316 39.4338C15.237 39.241 15.4057 39.0666 15.6375 38.9129C15.8747 38.7541 16.1276 38.6733 16.3963 38.6733Z" fill="black"/>
<path d="M21.9586 38.694C22.0561 38.694 22.1378 38.7253 22.201 38.7878C22.2643 38.8451 22.2959 38.9232 22.2959 39.0273V42.0065C22.2959 42.1055 22.2643 42.1836 22.201 42.2461C22.1378 42.3086 22.0561 42.3398 21.9586 42.3398C21.8664 42.3398 21.79 42.3086 21.7268 42.2461C21.6635 42.1836 21.6319 42.1055 21.6319 42.0065V41.8294C21.5107 41.9909 21.3473 42.1289 21.1366 42.2461C20.931 42.3555 20.7071 42.4128 20.4621 42.4128C20.1511 42.4128 19.8666 42.3346 19.6084 42.1732C19.3475 42.0065 19.1446 41.7826 18.9971 41.4961C18.8548 41.2122 18.7863 40.8893 18.7863 40.5273C18.7863 40.1732 18.8548 39.8555 18.9971 39.569C19.1446 39.2773 19.3449 39.0534 19.5978 38.8919C19.856 38.7331 20.138 38.6523 20.441 38.6523C20.686 38.6523 20.9152 38.7044 21.126 38.8086C21.3421 38.9076 21.5107 39.0352 21.6319 39.194V39.0273C21.6319 38.931 21.6635 38.8503 21.7268 38.7878C21.79 38.7253 21.8664 38.694 21.9586 38.694ZM20.5464 41.8086C20.7624 41.8086 20.9574 41.7539 21.126 41.6419C21.2946 41.5326 21.4238 41.3789 21.516 41.1836C21.6135 40.9909 21.6635 40.7721 21.6635 40.5273C21.6635 40.293 21.6135 40.0794 21.516 39.8919C21.4238 39.6992 21.2946 39.5456 21.126 39.4336C20.9574 39.3164 20.7624 39.2565 20.5464 39.2565C20.3277 39.2565 20.1353 39.3138 19.9667 39.4232C19.7981 39.5352 19.6637 39.6888 19.5662 39.8815C19.4661 40.069 19.4187 40.2852 19.4187 40.5273C19.4187 40.7721 19.4661 40.9909 19.5662 41.1836C19.6637 41.3789 19.7981 41.5326 19.9667 41.6419C20.1353 41.7539 20.3277 41.8086 20.5464 41.8086Z" fill="black"/>
<path d="M25.5457 38.6523C26.3809 38.6523 26.7999 39.1497 26.7999 40.1419V42.0065C26.7999 42.1055 26.7682 42.1836 26.705 42.2461C26.6418 42.3086 26.5601 42.3398 26.4626 42.3398C26.3704 42.3398 26.294 42.3086 26.2307 42.2461C26.1675 42.1836 26.1359 42.1055 26.1359 42.0065V40.1419C26.1359 39.8789 26.0727 39.668 25.9462 39.5065C25.825 39.3398 25.6221 39.2565 25.3349 39.2565C25.1505 39.2565 24.9819 39.2982 24.829 39.3815C24.6815 39.4596 24.5656 39.5664 24.4812 39.7044C24.3969 39.8372 24.3548 39.9831 24.3548 40.1419V42.0065C24.3548 42.1055 24.3231 42.1836 24.2599 42.2461C24.1967 42.3086 24.115 42.3398 24.0175 42.3398C23.9174 42.3398 23.8383 42.3086 23.7751 42.2461C23.7171 42.1836 23.6908 42.1055 23.6908 42.0065V39.069C23.6908 38.9805 23.7224 38.9023 23.7856 38.8398C23.8489 38.7721 23.9253 38.7357 24.0175 38.7357C24.115 38.7357 24.1967 38.7721 24.2599 38.8398C24.3231 38.9023 24.3548 38.9805 24.3548 39.069V39.3086C24.4733 39.1289 24.6393 38.9753 24.8501 38.8503C25.0662 38.7201 25.298 38.6523 25.5457 38.6523Z" fill="black"/>
<path d="M31.1512 38.694C31.2487 38.694 31.3304 38.7253 31.3936 38.7878C31.4569 38.8451 31.4885 38.9232 31.4885 39.0273V42.0065C31.4885 42.1055 31.4569 42.1836 31.3936 42.2461C31.3304 42.3086 31.2487 42.3398 31.1512 42.3398C31.059 42.3398 30.9826 42.3086 30.9194 42.2461C30.8561 42.1836 30.8245 42.1055 30.8245 42.0065V41.8294C30.7033 41.9909 30.54 42.1289 30.3292 42.2461C30.1237 42.3555 29.8997 42.4128 29.6547 42.4128C29.3438 42.4128 29.0592 42.3346 28.801 42.1732C28.5402 42.0065 28.3373 41.7826 28.1897 41.4961C28.0474 41.2122 27.9789 40.8893 27.9789 40.5273C27.9789 40.1732 28.0474 39.8555 28.1897 39.569C28.3373 39.2773 28.5375 39.0534 28.7905 38.8919C29.0487 38.7331 29.3306 38.6523 29.6336 38.6523C29.8786 38.6523 30.1079 38.7044 30.3186 38.8086C30.5347 38.9076 30.7033 39.0352 30.8245 39.194V39.0273C30.8245 38.931 30.8561 38.8503 30.9194 38.7878C30.9826 38.7253 31.059 38.694 31.1512 38.694ZM29.739 41.8086C29.955 41.8086 30.15 41.7539 30.3186 41.6419C30.4873 41.5326 30.6164 41.3789 30.7086 41.1836C30.8061 40.9909 30.8561 40.7721 30.8561 40.5273C30.8561 40.293 30.8061 40.0794 30.7086 39.8919C30.6164 39.6992 30.4873 39.5456 30.3186 39.4336C30.15 39.3164 29.955 39.2565 29.739 39.2565C29.5203 39.2565 29.328 39.3138 29.1593 39.4232C28.9907 39.5352 28.8563 39.6888 28.7588 39.8815C28.6587 40.069 28.6113 40.2852 28.6113 40.5273C28.6113 40.7721 28.6587 40.9909 28.7588 41.1836C28.8563 41.3789 28.9907 41.5326 29.1593 41.6419C29.328 41.7539 29.5203 41.8086 29.739 41.8086Z" fill="black"/>
<path d="M35.9293 38.694C36.0268 38.694 36.1085 38.7253 36.1717 38.7878C36.235 38.8451 36.2666 38.9232 36.2666 39.0273V42.0482C36.2666 42.4232 36.1849 42.7357 36.0242 42.9857C35.8608 43.2357 35.6448 43.418 35.3707 43.5378C35.0967 43.6549 34.7858 43.7148 34.4433 43.7148C34.2589 43.7148 34.0428 43.6836 33.7899 43.6211C33.5422 43.5586 33.3841 43.4909 33.3156 43.4232C33.1733 43.3451 33.1048 43.2513 33.1048 43.1419C33.1048 43.1133 33.1154 43.0794 33.1364 43.0378C33.1839 42.918 33.2682 42.8607 33.3894 42.8607C33.4526 42.8607 33.5185 42.8737 33.5896 42.9023C33.9532 43.0482 34.2431 43.1211 34.4538 43.1211C34.8253 43.1211 35.1099 43.0299 35.3075 42.8503C35.5025 42.6758 35.6026 42.4362 35.6026 42.1315V41.7565C35.5025 41.9388 35.3391 42.0951 35.1073 42.2253C34.8807 42.3503 34.6383 42.4128 34.3801 42.4128C34.0639 42.4128 33.7714 42.3346 33.5053 42.1732C33.2445 42.0065 33.0363 41.7826 32.8835 41.4961C32.7359 41.2122 32.6622 40.8893 32.6622 40.5273C32.6622 40.1732 32.7359 39.8555 32.8835 39.569C33.0363 39.2773 33.2445 39.0534 33.5053 38.8919C33.7635 38.7331 34.0533 38.6523 34.3695 38.6523C34.6225 38.6523 34.857 38.7122 35.0757 38.8294C35.2996 38.9414 35.4761 39.0794 35.6026 39.2461V39.0273C35.6026 38.931 35.629 38.8503 35.6869 38.7878C35.7502 38.7253 35.8292 38.694 35.9293 38.694ZM34.4644 41.8086C34.6883 41.8086 34.8886 41.7539 35.0651 41.6419C35.239 41.5326 35.376 41.3789 35.4761 41.1836C35.5815 40.9909 35.6342 40.7721 35.6342 40.5273C35.6342 40.2852 35.5815 40.069 35.4761 39.8815C35.376 39.6888 35.239 39.5352 35.0651 39.4232C34.8886 39.3138 34.6883 39.2565 34.4644 39.2565C34.2378 39.2565 34.0375 39.3138 33.8636 39.4232C33.6871 39.5352 33.5475 39.6888 33.4421 39.8815C33.3419 40.0768 33.2945 40.293 33.2945 40.5273C33.2945 40.7721 33.3419 40.9909 33.4421 41.1836C33.5475 41.3789 33.6871 41.5326 33.8636 41.6419C34.0375 41.7539 34.2378 41.8086 34.4644 41.8086Z" fill="black"/>
<path d="M40.8504 40.4023C40.8504 40.4857 40.8135 40.556 40.745 40.6107C40.6817 40.668 40.608 40.694 40.5237 40.694H38.068C38.1023 41.0273 38.2314 41.2982 38.458 41.5065C38.6819 41.7096 38.956 41.8086 39.28 41.8086C39.504 41.8086 39.6858 41.7773 39.8281 41.7148C39.9677 41.6471 40.0916 41.5638 40.1969 41.4648C40.2654 41.4232 40.334 41.4023 40.3972 41.4023C40.4736 41.4023 40.5368 41.431 40.5869 41.4857C40.6422 41.5352 40.6712 41.5977 40.6712 41.6732C40.6712 41.7721 40.6238 41.8581 40.5342 41.9336C40.3998 42.0664 40.2207 42.181 39.9967 42.2773C39.778 42.3659 39.5541 42.4128 39.3222 42.4128C38.9428 42.4128 38.6082 42.3372 38.321 42.1836C38.039 42.0247 37.8203 41.806 37.6675 41.5273C37.5121 41.2435 37.4357 40.9232 37.4357 40.569C37.4357 40.1888 37.5121 39.8503 37.6675 39.5586C37.8283 39.2669 38.039 39.0456 38.2999 38.8919C38.566 38.7331 38.8506 38.6523 39.1536 38.6523C39.4487 38.6523 39.7253 38.7305 39.9862 38.8815C40.2444 39.0352 40.4525 39.2435 40.608 39.5065C40.7687 39.7721 40.8504 40.069 40.8504 40.4023ZM39.1536 39.2565C38.8927 39.2565 38.6688 39.3294 38.4791 39.4753C38.2893 39.6211 38.1629 39.8451 38.0996 40.1419H40.1548V40.0898C40.1337 39.8477 40.0204 39.6497 39.8175 39.4961C39.6199 39.3372 39.3986 39.2565 39.1536 39.2565Z" fill="black"/>
<path d="M47.3272 38.694C47.4246 38.694 47.5063 38.7253 47.5696 38.7878C47.6328 38.8451 47.6644 38.9232 47.6644 39.0273V42.0065C47.6644 42.1055 47.6328 42.1836 47.5696 42.2461C47.5063 42.3086 47.4246 42.3398 47.3272 42.3398C47.2349 42.3398 47.1585 42.3086 47.0953 42.2461C47.0321 42.1836 47.0004 42.1055 47.0004 42.0065V41.8294C46.8792 41.9909 46.7159 42.1289 46.5051 42.2461C46.2996 42.3555 46.0756 42.4128 45.8306 42.4128C45.5197 42.4128 45.2351 42.3346 44.9769 42.1732C44.7161 42.0065 44.5132 41.7826 44.3656 41.4961C44.2234 41.2122 44.1548 40.8893 44.1548 40.5273C44.1548 40.1732 44.2234 39.8555 44.3656 39.569C44.5132 39.2773 44.7134 39.0534 44.9664 38.8919C45.2246 38.7331 45.5065 38.6523 45.8095 38.6523C46.0545 38.6523 46.2838 38.7044 46.4946 38.8086C46.7106 38.9076 46.8792 39.0352 47.0004 39.194V39.0273C47.0004 38.931 47.0321 38.8503 47.0953 38.7878C47.1585 38.7253 47.2349 38.694 47.3272 38.694ZM45.9149 41.8086C46.1309 41.8086 46.3259 41.7539 46.4946 41.6419C46.6632 41.5326 46.7923 41.3789 46.8845 41.1836C46.982 40.9909 47.0321 40.7721 47.0321 40.5273C47.0321 40.293 46.982 40.0794 46.8845 39.8919C46.7923 39.6992 46.6632 39.5456 46.4946 39.4336C46.3259 39.3164 46.1309 39.2565 45.9149 39.2565C45.6962 39.2565 45.5039 39.3138 45.3352 39.4232C45.1666 39.5352 45.0322 39.6888 44.9347 39.8815C44.8346 40.069 44.7872 40.2852 44.7872 40.5273C44.7872 40.7721 44.8346 40.9909 44.9347 41.1836C45.0322 41.3789 45.1666 41.5326 45.3352 41.6419C45.5039 41.7539 45.6962 41.8086 45.9149 41.8086Z" fill="black"/>
<path d="M50.05 39.3815V41.4232C50.05 41.6523 50.1502 41.7669 50.3557 41.7669C50.3899 41.7669 50.4347 41.7617 50.4927 41.7461C50.548 41.7331 50.5902 41.7253 50.6191 41.7253C50.6824 41.7253 50.7351 41.7513 50.7772 41.7982C50.8194 41.8477 50.8405 41.9102 50.8405 41.9857C50.8405 42.0846 50.7825 42.168 50.6718 42.2357C50.5585 42.306 50.4321 42.3398 50.2924 42.3398C50.1449 42.3398 50.0026 42.3268 49.8709 42.2982C49.7444 42.2643 49.6311 42.181 49.5336 42.0482C49.4335 41.918 49.3861 41.7201 49.3861 41.4544V39.3815H48.9856C48.8934 39.3815 48.8196 39.3555 48.7642 39.2982C48.7063 39.2357 48.6799 39.1602 48.6799 39.069C48.6799 38.9857 48.7063 38.918 48.7642 38.8607C48.8196 38.806 48.8934 38.7773 48.9856 38.7773H49.3861V38.2044C49.3861 38.1081 49.4177 38.0273 49.4809 37.9648C49.5441 37.9023 49.6232 37.8711 49.7233 37.8711C49.8129 37.8711 49.8919 37.9023 49.9552 37.9648C50.0184 38.0273 50.05 38.1081 50.05 38.2044V38.7773H50.6191C50.7087 38.7773 50.7825 38.8086 50.8405 38.8711C50.8958 38.9284 50.9248 38.9961 50.9248 39.0794C50.9248 39.1706 50.8958 39.2435 50.8405 39.2982C50.7825 39.3555 50.7087 39.3815 50.6191 39.3815H50.05Z" fill="black"/>
<path d="M57.167 38.7046C57.2645 38.7046 57.3462 38.7358 57.4094 38.7983C57.4727 38.8608 57.5043 38.9416 57.5043 39.0379V42.0067C57.5043 42.5744 57.3409 43.0015 57.0195 43.2879C56.7033 43.5718 56.2817 43.715 55.7548 43.715C55.5861 43.715 55.4175 43.6968 55.2489 43.6629C55.0802 43.6343 54.9432 43.5926 54.8378 43.5379C54.6692 43.4598 54.5849 43.353 54.5849 43.215C54.5849 43.1942 54.5875 43.1655 54.5954 43.1317C54.6218 43.0535 54.6613 42.9963 54.7114 42.9546C54.7667 42.9129 54.8273 42.8921 54.8905 42.8921C54.9248 42.8921 54.959 42.8973 54.9959 42.9129C55.1356 42.9754 55.2621 43.0223 55.3753 43.0588C55.486 43.1004 55.6177 43.1213 55.7653 43.1213C56.482 43.1213 56.8403 42.7567 56.8403 42.0275V41.8817C56.7138 42.0483 56.5505 42.1812 56.3555 42.2775C56.1579 42.366 55.9339 42.4129 55.681 42.4129C55.2937 42.4129 54.9907 42.2931 54.7746 42.0483C54.5638 41.8062 54.4584 41.4858 54.4584 41.09V39.0379C54.4584 38.9416 54.4848 38.8608 54.5427 38.7983C54.606 38.7358 54.685 38.7046 54.7852 38.7046C54.8826 38.7046 54.9643 38.7358 55.0276 38.7983C55.0908 38.8608 55.1224 38.9416 55.1224 39.0379V40.9129C55.1224 41.2202 55.1883 41.4442 55.3227 41.59C55.4544 41.7358 55.6599 41.8088 55.9339 41.8088C56.1921 41.8088 56.4082 41.7254 56.5768 41.5588C56.7507 41.3921 56.8403 41.1785 56.8403 40.9129V39.0379C56.8403 38.9416 56.8666 38.8608 56.9246 38.7983C56.9878 38.7358 57.0669 38.7046 57.167 38.7046Z" fill="black"/>
<path d="M62.3448 40.5378C62.3448 40.8997 62.2631 41.2227 62.1024 41.5065C61.939 41.7852 61.7177 42.0065 61.4384 42.1732C61.1565 42.3346 60.8482 42.4128 60.5109 42.4128C60.1737 42.4128 59.8628 42.3346 59.5835 42.1732C59.3016 42.0065 59.0802 41.7852 58.9195 41.5065C58.7562 41.2227 58.6771 40.8997 58.6771 40.5378C58.6771 40.1836 58.7562 39.8607 58.9195 39.569C59.0802 39.2773 59.3016 39.0534 59.5835 38.8919C59.8628 38.7331 60.1737 38.6523 60.5109 38.6523C60.8482 38.6523 61.1565 38.7331 61.4384 38.8919C61.7177 39.0534 61.939 39.2773 62.1024 39.569C62.2631 39.8607 62.3448 40.1836 62.3448 40.5378ZM61.6913 40.5378C61.6913 40.2878 61.6386 40.0664 61.5333 39.8711C61.4279 39.6784 61.2829 39.5273 61.1011 39.4232C60.9246 39.3138 60.727 39.2565 60.5109 39.2565C60.2923 39.2565 60.092 39.3138 59.9102 39.4232C59.7337 39.5273 59.594 39.6784 59.4886 39.8711C59.3833 40.0664 59.3306 40.2878 59.3306 40.5378C59.3306 40.7826 59.3833 41.0013 59.4886 41.194C59.594 41.3815 59.7337 41.5326 59.9102 41.6419C60.092 41.7539 60.2923 41.8086 60.5109 41.8086C60.727 41.8086 60.9246 41.7539 61.1011 41.6419C61.2829 41.5326 61.4279 41.3815 61.5333 41.194C61.6386 41.0013 61.6913 40.7826 61.6913 40.5378Z" fill="black"/>
<path d="M66.2346 38.7358C66.3321 38.7358 66.4138 38.7723 66.477 38.84C66.5403 38.9025 66.5719 38.9806 66.5719 39.0692V40.8921C66.5719 41.3713 66.4375 41.7437 66.1714 42.0067C65.9027 42.2723 65.5285 42.4025 65.0437 42.4025C64.5589 42.4025 64.1821 42.2723 63.916 42.0067C63.6552 41.7437 63.5261 41.3713 63.5261 40.8921V39.0692C63.5261 38.9806 63.5577 38.9025 63.6209 38.84C63.6842 38.7723 63.7606 38.7358 63.8528 38.7358C63.9503 38.7358 64.0319 38.7723 64.0952 38.84C64.1584 38.9025 64.19 38.9806 64.19 39.0692V40.8921C64.19 41.4963 64.4746 41.7983 65.0437 41.7983C65.323 41.7983 65.5391 41.7228 65.6866 41.5692C65.8342 41.4181 65.9079 41.1916 65.9079 40.8921V39.0692C65.9079 38.9806 65.9395 38.9025 66.0028 38.84C66.066 38.7723 66.1424 38.7358 66.2346 38.7358Z" fill="black"/>
<path d="M69.7858 38.6523C69.9043 38.6523 70.0071 38.6836 70.0914 38.7461C70.181 38.8086 70.2284 38.8867 70.2284 38.9753C70.2284 39.0872 70.1994 39.1732 70.1441 39.2357C70.0861 39.293 70.0176 39.319 69.9333 39.319C69.8912 39.319 69.8279 39.306 69.7436 39.2773C69.6435 39.2435 69.5671 39.2253 69.5117 39.2253C69.3695 39.2253 69.2298 39.2747 69.0902 39.3711C68.9558 39.4701 68.8478 39.6055 68.7635 39.7773C68.6791 39.9518 68.637 40.1419 68.637 40.3503V42.0065C68.637 42.1055 68.6054 42.1836 68.5421 42.2461C68.4789 42.3086 68.3972 42.3398 68.2997 42.3398C68.1996 42.3398 68.1206 42.3086 68.0573 42.2461C67.9994 42.1836 67.973 42.1055 67.973 42.0065V39.069C67.973 38.9805 68.0046 38.9023 68.0679 38.8398C68.1311 38.7721 68.2075 38.7357 68.2997 38.7357C68.3972 38.7357 68.4789 38.7721 68.5421 38.8398C68.6054 38.9023 68.637 38.9805 68.637 39.069V39.4128C68.7345 39.1914 68.8847 39.0117 69.0902 38.8711C69.2931 38.7331 69.5249 38.6602 69.7858 38.6523Z" fill="black"/>
<path d="M75.1612 37.84C75.0057 37.84 74.8898 37.8895 74.8134 37.9858C74.7422 38.077 74.708 38.189 74.708 38.3192V38.7983H75.4036C75.4932 38.7983 75.5669 38.8296 75.6249 38.8921C75.6881 38.9494 75.7198 39.0171 75.7198 39.1004C75.7198 39.1916 75.6881 39.2645 75.6249 39.3192C75.5669 39.3765 75.4932 39.4025 75.4036 39.4025H74.708V42.0067C74.708 42.1056 74.6764 42.1838 74.6131 42.2463C74.5552 42.3088 74.4788 42.34 74.3813 42.34C74.2891 42.34 74.2126 42.3088 74.1494 42.2463C74.0862 42.1838 74.0546 42.1056 74.0546 42.0067V39.4025H73.6225C73.5302 39.4025 73.4538 39.3765 73.3906 39.3192C73.3326 39.2645 73.3063 39.1916 73.3063 39.1004C73.3063 39.0171 73.3326 38.9494 73.3906 38.8921C73.4538 38.8296 73.5302 38.7983 73.6225 38.7983H74.0546V38.3192C74.0546 38.0015 74.1547 37.7463 74.3602 37.5588C74.571 37.366 74.8661 37.2671 75.2455 37.2671C75.4062 37.2671 75.5459 37.2957 75.6671 37.3504C75.7856 37.4077 75.8462 37.4937 75.8462 37.6108C75.8462 37.6942 75.8172 37.7671 75.7619 37.8296C75.7119 37.8869 75.6486 37.9129 75.5722 37.9129C75.5564 37.9129 75.509 37.9025 75.4247 37.8817C75.3193 37.8556 75.2297 37.84 75.1612 37.84Z" fill="black"/>
<path d="M77.35 42.0068C77.35 42.1058 77.3184 42.1839 77.2552 42.2464C77.192 42.3089 77.1129 42.3402 77.0233 42.3402C76.9232 42.3402 76.8442 42.3089 76.7809 42.2464C76.723 42.1839 76.6966 42.1058 76.6966 42.0068V39.0381C76.6966 38.9417 76.723 38.861 76.7809 38.7985C76.8442 38.736 76.9232 38.7048 77.0233 38.7048C77.1129 38.7048 77.192 38.736 77.2552 38.7985C77.3184 38.861 77.35 38.9417 77.35 39.0381V42.0068ZM77.0128 38.2464C76.8784 38.2464 76.7836 38.223 76.7282 38.1735C76.6703 38.1266 76.6439 38.0485 76.6439 37.9443V37.8402C76.6439 37.7308 76.6755 37.6527 76.7388 37.611C76.802 37.5641 76.8969 37.5381 77.0233 37.5381C77.1498 37.5381 77.2394 37.5641 77.2974 37.611C77.3606 37.6605 77.3922 37.736 77.3922 37.8402V37.9443C77.3922 38.0563 77.3606 38.137 77.2974 38.1839C77.2394 38.2256 77.1445 38.2464 77.0128 38.2464Z" fill="black"/>
<path d="M80.5774 38.6523C81.4127 38.6523 81.8316 39.1497 81.8316 40.1419V42.0065C81.8316 42.1055 81.8 42.1836 81.7367 42.2461C81.6735 42.3086 81.5918 42.3398 81.4943 42.3398C81.4021 42.3398 81.3257 42.3086 81.2625 42.2461C81.1992 42.1836 81.1676 42.1055 81.1676 42.0065V40.1419C81.1676 39.8789 81.1044 39.668 80.9779 39.5065C80.8567 39.3398 80.6538 39.2565 80.3667 39.2565C80.1822 39.2565 80.0136 39.2982 79.8608 39.3815C79.7132 39.4596 79.5973 39.5664 79.513 39.7044C79.4287 39.8372 79.3865 39.9831 79.3865 40.1419V42.0065C79.3865 42.1055 79.3549 42.1836 79.2917 42.2461C79.2284 42.3086 79.1467 42.3398 79.0492 42.3398C78.9491 42.3398 78.8701 42.3086 78.8068 42.2461C78.7489 42.1836 78.7225 42.1055 78.7225 42.0065V39.069C78.7225 38.9805 78.7542 38.9023 78.8174 38.8398C78.8806 38.7721 78.957 38.7357 79.0492 38.7357C79.1467 38.7357 79.2284 38.7721 79.2917 38.8398C79.3549 38.9023 79.3865 38.9805 79.3865 39.069V39.3086C79.5051 39.1289 79.6711 38.9753 79.8818 38.8503C80.0979 38.7201 80.3298 38.6523 80.5774 38.6523Z" fill="black"/>
<path d="M86.2778 38.694C86.3753 38.694 86.457 38.7253 86.5202 38.7878C86.5835 38.8451 86.6151 38.9232 86.6151 39.0273V42.0482C86.6151 42.4232 86.5334 42.7357 86.3727 42.9857C86.2093 43.2357 85.9933 43.418 85.7193 43.5378C85.4452 43.6549 85.1343 43.7148 84.7918 43.7148C84.6074 43.7148 84.3913 43.6836 84.1384 43.6211C83.8907 43.5586 83.7326 43.4909 83.6641 43.4232C83.5218 43.3451 83.4533 43.2513 83.4533 43.1419C83.4533 43.1133 83.4639 43.0794 83.4849 43.0378C83.5324 42.918 83.6167 42.8607 83.7379 42.8607C83.8011 42.8607 83.867 42.8737 83.9381 42.9023C84.3017 43.0482 84.5916 43.1211 84.8023 43.1211C85.1739 43.1211 85.4584 43.0299 85.656 42.8503C85.851 42.6758 85.9511 42.4362 85.9511 42.1315V41.7565C85.851 41.9388 85.6876 42.0951 85.4558 42.2253C85.2292 42.3503 84.9868 42.4128 84.7286 42.4128C84.4124 42.4128 84.1199 42.3346 83.8538 42.1732C83.593 42.0065 83.3848 41.7826 83.232 41.4961C83.0845 41.2122 83.0107 40.8893 83.0107 40.5273C83.0107 40.1732 83.0845 39.8555 83.232 39.569C83.3848 39.2773 83.593 39.0534 83.8538 38.8919C84.112 38.7331 84.4019 38.6523 84.718 38.6523C84.971 38.6523 85.2055 38.7122 85.4242 38.8294C85.6481 38.9414 85.8247 39.0794 85.9511 39.2461V39.0273C85.9511 38.931 85.9775 38.8503 86.0354 38.7878C86.0987 38.7253 86.1777 38.694 86.2778 38.694ZM84.8129 41.8086C85.0368 41.8086 85.2371 41.7539 85.4136 41.6419C85.5875 41.5326 85.7245 41.3789 85.8247 41.1836C85.93 40.9909 85.9827 40.7721 85.9827 40.5273C85.9827 40.2852 85.93 40.069 85.8247 39.8815C85.7245 39.6888 85.5875 39.5352 85.4136 39.4232C85.2371 39.3138 85.0368 39.2565 84.8129 39.2565C84.5863 39.2565 84.386 39.3138 84.2122 39.4232C84.0356 39.5352 83.896 39.6888 83.7906 39.8815C83.6905 40.0768 83.643 40.293 83.643 40.5273C83.643 40.7721 83.6905 40.9909 83.7906 41.1836C83.896 41.3789 84.0356 41.5326 84.2122 41.6419C84.386 41.7539 84.5863 41.8086 84.8129 41.8086Z" fill="black"/>
<path d="M91.1989 40.4023C91.1989 40.4857 91.162 40.556 91.0935 40.6107C91.0303 40.668 90.9565 40.694 90.8722 40.694H88.4165C88.4508 41.0273 88.5799 41.2982 88.8065 41.5065C89.0304 41.7096 89.3045 41.8086 89.6285 41.8086C89.8525 41.8086 90.0343 41.7773 90.1766 41.7148C90.3162 41.6471 90.4401 41.5638 90.5455 41.4648C90.614 41.4232 90.6825 41.4023 90.7457 41.4023C90.8221 41.4023 90.8853 41.431 90.9354 41.4857C90.9907 41.5352 91.0197 41.5977 91.0197 41.6732C91.0197 41.7721 90.9723 41.8581 90.8827 41.9336C90.7483 42.0664 90.5692 42.181 90.3452 42.2773C90.1265 42.3659 89.9026 42.4128 89.6707 42.4128C89.2913 42.4128 88.9567 42.3372 88.6695 42.1836C88.3875 42.0247 88.1689 41.806 88.016 41.5273C87.8606 41.2435 87.7842 40.9232 87.7842 40.569C87.7842 40.1888 87.8606 39.8503 88.016 39.5586C88.1768 39.2669 88.3875 39.0456 88.6484 38.8919C88.9145 38.7331 89.1991 38.6523 89.5021 38.6523C89.7972 38.6523 90.0738 38.7305 90.3347 38.8815C90.5929 39.0352 90.801 39.2435 90.9565 39.5065C91.1172 39.7721 91.1989 40.069 91.1989 40.4023ZM89.5021 39.2565C89.2412 39.2565 89.0173 39.3294 88.8276 39.4753C88.6379 39.6211 88.5114 39.8451 88.4482 40.1419H90.5033V40.0898C90.4822 39.8477 90.3689 39.6497 90.166 39.4961C89.9684 39.3372 89.7471 39.2565 89.5021 39.2565Z" fill="black"/>
<path d="M94.1957 38.6523C94.3143 38.6523 94.4171 38.6836 94.5014 38.7461C94.591 38.8086 94.6384 38.8867 94.6384 38.9753C94.6384 39.0872 94.6094 39.1732 94.5541 39.2357C94.4961 39.293 94.4276 39.319 94.3433 39.319C94.3011 39.319 94.2379 39.306 94.1536 39.2773C94.0535 39.2435 93.9771 39.2253 93.9217 39.2253C93.7794 39.2253 93.6398 39.2747 93.5002 39.3711C93.3658 39.4701 93.2578 39.6055 93.1734 39.7773C93.0891 39.9518 93.047 40.1419 93.047 40.3503V42.0065C93.047 42.1055 93.0153 42.1836 92.9521 42.2461C92.8889 42.3086 92.8072 42.3398 92.7097 42.3398C92.6096 42.3398 92.5305 42.3086 92.4673 42.2461C92.4093 42.1836 92.383 42.1055 92.383 42.0065V39.069C92.383 38.9805 92.4146 38.9023 92.4778 38.8398C92.5411 38.7721 92.6175 38.7357 92.7097 38.7357C92.8072 38.7357 92.8889 38.7721 92.9521 38.8398C93.0153 38.9023 93.047 38.9805 93.047 39.069V39.4128C93.1445 39.1914 93.2946 39.0117 93.5002 38.8711C93.703 38.7331 93.9349 38.6602 94.1957 38.6523Z" fill="black"/>
<path d="M96.6603 39.3815V41.4232C96.6603 41.6523 96.7604 41.7669 96.966 41.7669C97.0002 41.7669 97.045 41.7617 97.103 41.7461C97.1583 41.7331 97.2005 41.7253 97.2294 41.7253C97.2927 41.7253 97.3454 41.7513 97.3875 41.7982C97.4297 41.8477 97.4508 41.9102 97.4508 41.9857C97.4508 42.0846 97.3928 42.168 97.2821 42.2357C97.1688 42.306 97.0424 42.3398 96.9027 42.3398C96.7552 42.3398 96.6129 42.3268 96.4812 42.2982C96.3547 42.2643 96.2414 42.181 96.1439 42.0482C96.0438 41.918 95.9963 41.7201 95.9963 41.4544V39.3815H95.5959C95.5036 39.3815 95.4299 39.3555 95.3745 39.2982C95.3166 39.2357 95.2902 39.1602 95.2902 39.069C95.2902 38.9857 95.3166 38.918 95.3745 38.8607C95.4299 38.806 95.5036 38.7773 95.5959 38.7773H95.9963V38.2044C95.9963 38.1081 96.028 38.0273 96.0912 37.9648C96.1544 37.9023 96.2335 37.8711 96.3336 37.8711C96.4232 37.8711 96.5022 37.9023 96.5655 37.9648C96.6287 38.0273 96.6603 38.1081 96.6603 38.2044V38.7773H97.2294C97.319 38.7773 97.3928 38.8086 97.4508 38.8711C97.5061 38.9284 97.5351 38.9961 97.5351 39.0794C97.5351 39.1706 97.5061 39.2435 97.4508 39.2982C97.3928 39.3555 97.319 39.3815 97.2294 39.3815H96.6603Z" fill="black"/>
<path d="M99.3488 42.0068C99.3488 42.1058 99.3172 42.1839 99.254 42.2464C99.1907 42.3089 99.1117 42.3402 99.0221 42.3402C98.922 42.3402 98.8429 42.3089 98.7797 42.2464C98.7217 42.1839 98.6954 42.1058 98.6954 42.0068V39.0381C98.6954 38.9417 98.7217 38.861 98.7797 38.7985C98.8429 38.736 98.922 38.7048 99.0221 38.7048C99.1117 38.7048 99.1907 38.736 99.254 38.7985C99.3172 38.861 99.3488 38.9417 99.3488 39.0381V42.0068ZM99.0116 38.2464C98.8772 38.2464 98.7823 38.223 98.727 38.1735C98.669 38.1266 98.6427 38.0485 98.6427 37.9443V37.8402C98.6427 37.7308 98.6743 37.6527 98.7376 37.611C98.8008 37.5641 98.8956 37.5381 99.0221 37.5381C99.1486 37.5381 99.2382 37.5641 99.2961 37.611C99.3594 37.6605 99.391 37.736 99.391 37.8402V37.9443C99.391 38.0563 99.3594 38.137 99.2961 38.1839C99.2382 38.2256 99.1433 38.2464 99.0116 38.2464Z" fill="black"/>
<path d="M102.545 38.6733C102.861 38.6733 103.145 38.7541 103.398 38.9129C103.656 39.0744 103.862 39.2957 104.01 39.5796C104.157 39.866 104.231 40.1838 104.231 40.5379C104.231 40.8999 104.157 41.2228 104.01 41.5067C103.862 41.7853 103.656 42.0041 103.398 42.1629C103.145 42.3244 102.866 42.4025 102.566 42.4025C102.318 42.4025 102.091 42.3504 101.881 42.2463C101.675 42.1421 101.512 42.0145 101.385 41.8608V43.3817C101.385 43.478 101.354 43.5588 101.29 43.6213C101.227 43.6838 101.146 43.715 101.048 43.715C100.956 43.715 100.879 43.6838 100.816 43.6213C100.753 43.5588 100.721 43.478 100.721 43.3817V39.0588C100.721 38.9624 100.748 38.8817 100.806 38.8192C100.869 38.7567 100.948 38.7254 101.048 38.7254C101.146 38.7254 101.227 38.7567 101.29 38.8192C101.354 38.8817 101.385 38.9624 101.385 39.0588V39.2567C101.491 39.0978 101.649 38.9624 101.86 38.8504C102.076 38.7332 102.305 38.6733 102.545 38.6733ZM102.471 41.7983C102.687 41.7983 102.882 41.7437 103.05 41.6317C103.219 41.5223 103.348 41.3713 103.44 41.1838C103.538 40.991 103.588 40.7749 103.588 40.5379C103.588 40.3035 103.538 40.09 103.44 39.9025C103.348 39.7098 103.219 39.5562 103.05 39.4442C102.882 39.3348 102.687 39.2775 102.471 39.2775C102.252 39.2775 102.055 39.3348 101.881 39.4442C101.712 39.5483 101.578 39.6994 101.48 39.8921C101.388 40.0874 101.343 40.3035 101.343 40.5379C101.343 40.7749 101.388 40.991 101.48 41.1838C101.578 41.3791 101.712 41.5327 101.881 41.6421C102.055 41.7463 102.252 41.7983 102.471 41.7983Z" fill="black"/>
<path d="M105.194 41.7773C105.152 41.7148 105.13 41.6523 105.13 41.5898C105.13 41.5013 105.178 41.4232 105.278 41.3607C105.325 41.3268 105.378 41.3086 105.436 41.3086C105.52 41.3086 105.597 41.3451 105.668 41.4128C105.808 41.5664 105.955 41.6836 106.111 41.7669C106.271 41.8451 106.464 41.8815 106.69 41.8815C106.864 41.8763 107.02 41.8346 107.154 41.7565C107.286 41.681 107.354 41.5586 107.354 41.3919C107.354 41.2331 107.283 41.1159 107.143 41.0378C107.009 40.9544 106.811 40.8789 106.553 40.8086C106.292 40.7409 106.074 40.668 105.9 40.5898C105.731 40.5143 105.586 40.4076 105.468 40.2669C105.347 40.1211 105.289 39.931 105.289 39.694C105.289 39.4857 105.347 39.306 105.468 39.1523C105.586 38.9935 105.744 38.8711 105.942 38.7878C106.137 38.6992 106.353 38.6523 106.585 38.6523C106.809 38.6523 107.03 38.694 107.249 38.7773C107.465 38.8607 107.644 38.9857 107.786 39.1523C107.842 39.2227 107.871 39.293 107.871 39.3607C107.871 39.431 107.834 39.5013 107.765 39.569C107.715 39.6107 107.655 39.6315 107.586 39.6315C107.502 39.6315 107.433 39.6055 107.386 39.5482C107.286 39.4388 107.167 39.3555 107.028 39.2982C106.885 39.2357 106.727 39.2044 106.553 39.2044C106.377 39.2044 106.227 39.2409 106.1 39.3086C105.979 39.3789 105.921 39.5013 105.921 39.6732C105.926 39.8346 105.997 39.9518 106.132 40.0273C106.271 40.1055 106.482 40.181 106.764 40.2565C107.009 40.319 107.212 40.3893 107.375 40.4648C107.536 40.5352 107.673 40.6419 107.786 40.7878C107.897 40.9336 107.955 41.1263 107.955 41.3607C107.955 41.5768 107.892 41.7643 107.765 41.9232C107.639 42.0768 107.473 42.1992 107.27 42.2878C107.072 42.3711 106.862 42.4128 106.638 42.4128C106.343 42.4128 106.068 42.3633 105.816 42.2669C105.568 42.1628 105.362 42.0013 105.194 41.7773Z" fill="black"/>
<mask id="mask0_98_13051" style="mask-type:luminance" maskUnits="userSpaceOnUse" x="57" y="15" width="8" height="22">
<path d="M57.1647 15.5H64.5843V36.8333H57.1647V15.5Z" fill="white"/>
</mask>
<g mask="url(#mask0_98_13051)">
<mask id="mask1_98_13051" style="mask-type:luminance" maskUnits="userSpaceOnUse" x="53" y="15" width="17" height="22">
<path d="M53.9739 19.0365L63.0666 15.9609L69.1267 33.4661L60.0314 36.5417L53.9739 19.0365Z" fill="white"/>
</mask>
<g mask="url(#mask1_98_13051)">
<mask id="mask2_98_13051" style="mask-type:luminance" maskUnits="userSpaceOnUse" x="53" y="15" width="17" height="22">
<path d="M53.9739 19.0365L63.0666 15.9609L69.1267 33.4661L60.0314 36.5417L53.9739 19.0365Z" fill="white"/>
</mask>
<g mask="url(#mask2_98_13051)">
<path d="M58.4294 17.5314L62.9613 15.9976L61.4489 23.2319L64.1074 22.3335L60.0156 36.4871L60.5425 26.4038L57.6996 27.5236L58.4294 17.5314Z" fill="white"/>
</g>
</g>
</g>
<mask id="mask3_98_13051" style="mask-type:luminance" maskUnits="userSpaceOnUse" x="57" y="16" width="5" height="21">
<path d="M57.1647 16.8335H61.2117V36.8335H57.1647V16.8335Z" fill="white"/>
</mask>
<g mask="url(#mask3_98_13051)">
<mask id="mask4_98_13051" style="mask-type:luminance" maskUnits="userSpaceOnUse" x="53" y="15" width="17" height="22">
<path d="M53.9739 19.0365L63.0666 15.9609L69.1267 33.4661L60.0314 36.5417L53.9739 19.0365Z" fill="white"/>
</mask>
<g mask="url(#mask4_98_13051)">
<mask id="mask5_98_13051" style="mask-type:luminance" maskUnits="userSpaceOnUse" x="53" y="15" width="17" height="22">
<path d="M53.9739 19.0365L63.0666 15.9609L69.1267 33.4661L60.0314 36.5417L53.9739 19.0365Z" fill="white"/>
</mask>
<g mask="url(#mask5_98_13051)">
<path d="M58.4294 17.5312L59.212 17.2656L57.6996 27.5234L58.4294 17.5312ZM60.0156 36.487L61.0879 26.2188L60.5425 26.4036L60.0156 36.487Z" fill="black"/>
</g>
</g>
</g>
</svg>
